%TF.GenerationSoftware,KiCad,Pcbnew,9.0.0*%
%TF.CreationDate,2025-03-31T13:52:19+02:00*%
%TF.ProjectId,HW_roggeluc_linortho,48575f72-6f67-4676-956c-75635f6c696e,rev?*%
%TF.SameCoordinates,Original*%
%TF.FileFunction,Soldermask,Bot*%
%TF.FilePolarity,Negative*%
%FSLAX46Y46*%
G04 Gerber Fmt 4.6, Leading zero omitted, Abs format (unit mm)*
G04 Created by KiCad (PCBNEW 9.0.0) date 2025-03-31 13:52:19*
%MOMM*%
%LPD*%
G01*
G04 APERTURE LIST*
%ADD10C,3.000000*%
%ADD11R,0.800000X1.500000*%
%ADD12R,1.450000X2.000000*%
%ADD13C,1.000000*%
%ADD14R,1.700000X1.700000*%
%ADD15O,1.700000X1.700000*%
%ADD16O,6.880000X3.440000*%
%ADD17C,3.200000*%
G04 APERTURE END LIST*
D10*
%TO.C,TP20*%
X90000000Y-132500000D03*
%TD*%
D11*
%TO.C,J1*%
X73200000Y-34450000D03*
X72100000Y-34450000D03*
X71000000Y-34450000D03*
X69900000Y-34450000D03*
X68800000Y-34450000D03*
X67700000Y-34450000D03*
X66600000Y-34450000D03*
X65500000Y-34450000D03*
D12*
X76875000Y-31850000D03*
X76875000Y-40150000D03*
X63125000Y-31850000D03*
X63125000Y-40150000D03*
%TD*%
D10*
%TO.C,TP19*%
X43000000Y-138500000D03*
%TD*%
%TO.C,TP18*%
X94500000Y-126500000D03*
%TD*%
%TO.C,TP17*%
X73000000Y-154000000D03*
%TD*%
%TO.C,TP16*%
X58500000Y-129000000D03*
%TD*%
%TO.C,TP14*%
X44500000Y-144500000D03*
%TD*%
%TO.C,TP7*%
X92000000Y-95500000D03*
%TD*%
%TO.C,TP13*%
X89500000Y-114500000D03*
%TD*%
%TO.C,TP12*%
X89500000Y-109000000D03*
%TD*%
%TO.C,TP1*%
X57500000Y-38500000D03*
%TD*%
%TO.C,TP6*%
X56500000Y-89500000D03*
%TD*%
%TO.C,TP9*%
X59500000Y-83500000D03*
%TD*%
%TO.C,TP10*%
X54000000Y-72000000D03*
%TD*%
D13*
%TO.C,J2*%
X67800000Y-161500000D03*
X72200000Y-161500000D03*
%TD*%
D10*
%TO.C,TP2*%
X43922370Y-150667723D03*
%TD*%
D14*
%TO.C,P3*%
X98000000Y-119943750D03*
D15*
X100540000Y-119943750D03*
X98000000Y-117403750D03*
X100540000Y-117403750D03*
X98000000Y-114863750D03*
X100540000Y-114863750D03*
X98000000Y-112323750D03*
X100540000Y-112323750D03*
X98000000Y-109783750D03*
X100540000Y-109783750D03*
X98000000Y-107243750D03*
X100540000Y-107243750D03*
X98000000Y-104703750D03*
X100540000Y-104703750D03*
X98000000Y-102163750D03*
X100540000Y-102163750D03*
X98000000Y-99623750D03*
X100540000Y-99623750D03*
X98000000Y-97083750D03*
X100540000Y-97083750D03*
X98000000Y-94543750D03*
X100540000Y-94543750D03*
X98000000Y-92003750D03*
X100540000Y-92003750D03*
X98000000Y-89463750D03*
X100540000Y-89463750D03*
X98000000Y-86923750D03*
X100540000Y-86923750D03*
X98000000Y-84383750D03*
X100540000Y-84383750D03*
X98000000Y-81843750D03*
X100540000Y-81843750D03*
X98000000Y-79303750D03*
X100540000Y-79303750D03*
X98000000Y-76763750D03*
X100540000Y-76763750D03*
X98000000Y-74223750D03*
X100540000Y-74223750D03*
X98000000Y-71683750D03*
X100540000Y-71683750D03*
X98000000Y-69143750D03*
X100540000Y-69143750D03*
X98000000Y-66603750D03*
X100540000Y-66603750D03*
X98000000Y-64063750D03*
X100540000Y-64063750D03*
X98000000Y-61523750D03*
X100540000Y-61523750D03*
X98000000Y-58983750D03*
X100540000Y-58983750D03*
X98000000Y-56443750D03*
X100540000Y-56443750D03*
X98000000Y-53903750D03*
X100540000Y-53903750D03*
X98000000Y-51363750D03*
X100540000Y-51363750D03*
X98000000Y-48823750D03*
X100540000Y-48823750D03*
X98000000Y-46283750D03*
X100540000Y-46283750D03*
X98000000Y-43743750D03*
X100540000Y-43743750D03*
X98000000Y-41203750D03*
X100540000Y-41203750D03*
%TD*%
D10*
%TO.C,TP11*%
X89500000Y-62000000D03*
%TD*%
%TO.C,TP4*%
X51500000Y-137443750D03*
%TD*%
%TO.C,TP8*%
X93000000Y-68000000D03*
%TD*%
D14*
%TO.C,P4*%
X46500000Y-119983750D03*
D15*
X49040000Y-119983750D03*
X46500000Y-117443750D03*
X49040000Y-117443750D03*
X46500000Y-114903750D03*
X49040000Y-114903750D03*
X46500000Y-112363750D03*
X49040000Y-112363750D03*
X46500000Y-109823750D03*
X49040000Y-109823750D03*
X46500000Y-107283750D03*
X49040000Y-107283750D03*
X46500000Y-104743750D03*
X49040000Y-104743750D03*
X46500000Y-102203750D03*
X49040000Y-102203750D03*
X46500000Y-99663750D03*
X49040000Y-99663750D03*
X46500000Y-97123750D03*
X49040000Y-97123750D03*
X46500000Y-94583750D03*
X49040000Y-94583750D03*
X46500000Y-92043750D03*
X49040000Y-92043750D03*
X46500000Y-89503750D03*
X49040000Y-89503750D03*
X46500000Y-86963750D03*
X49040000Y-86963750D03*
X46500000Y-84423750D03*
X49040000Y-84423750D03*
X46500000Y-81883750D03*
X49040000Y-81883750D03*
X46500000Y-79343750D03*
X49040000Y-79343750D03*
X46500000Y-76803750D03*
X49040000Y-76803750D03*
X46500000Y-74263750D03*
X49040000Y-74263750D03*
X46500000Y-71723750D03*
X49040000Y-71723750D03*
X46500000Y-69183750D03*
X49040000Y-69183750D03*
X46500000Y-66643750D03*
X49040000Y-66643750D03*
X46500000Y-64103750D03*
X49040000Y-64103750D03*
X46500000Y-61563750D03*
X49040000Y-61563750D03*
X46500000Y-59023750D03*
X49040000Y-59023750D03*
X46500000Y-56483750D03*
X49040000Y-56483750D03*
X46500000Y-53943750D03*
X49040000Y-53943750D03*
X46500000Y-51403750D03*
X49040000Y-51403750D03*
X46500000Y-48863750D03*
X49040000Y-48863750D03*
X46500000Y-46323750D03*
X49040000Y-46323750D03*
X46500000Y-43783750D03*
X49040000Y-43783750D03*
X46500000Y-41243750D03*
X49040000Y-41243750D03*
%TD*%
D16*
%TO.C,BT1*%
X75875416Y-65758210D03*
X75875416Y-138658210D03*
D17*
X75875416Y-74038210D03*
X75875416Y-129648210D03*
%TD*%
D14*
%TO.C,Y4*%
X70380000Y-58000000D03*
D15*
X72920000Y-58000000D03*
X75460000Y-58000000D03*
X78000000Y-58000000D03*
X80540000Y-58000000D03*
%TD*%
M02*
