M48
; DRILL file {KiCad 9.0.0} date 2025-03-31T13:57:34+0200
; FORMAT={-:-/ absolute / metric / decimal}
; #@! TF.CreationDate,2025-03-31T13:57:34+02:00
; #@! TF.GenerationSoftware,Kicad,Pcbnew,9.0.0
; #@! TF.FileFunction,Plated,1,2,PTH
FMAT,2
METRIC
; #@! TA.AperFunction,Plated,PTH,ViaDrill
T1C0.500
; #@! TA.AperFunction,Plated,PTH,ComponentDrill
T2C1.000
; #@! TA.AperFunction,Plated,PTH,ComponentDrill
T3C1.380
; #@! TA.AperFunction,Plated,PTH,ComponentDrill
T4C1.600
%
G90
G05
T1
X43.5Y-130.944
X43.952Y-97.548
X44.44Y-95.56
X46.494Y-151.5
X46.5Y-130.944
X46.5Y-140.999
X46.5Y-142.999
X47.5Y-149.5
X51.0Y-122.085
X51.46Y-119.984
X53.0Y-76.5
X53.0Y-143.5
X54.797Y-103.456
X55.5Y-41.0
X57.5Y-94.0
X57.5Y-125.444
X57.5Y-155.5
X57.5Y-161.0
X59.297Y-74.956
X59.815Y-94.815
X60.523Y-160.977
X60.797Y-95.956
X61.0Y-112.444
X61.0Y-125.444
X61.0Y-135.0
X61.0Y-137.0
X61.5Y-129.0
X62.0Y-147.0
X62.78Y-150.048
X64.5Y-161.0
X65.5Y-131.5
X66.5Y-36.0
X66.797Y-71.456
X66.92Y-92.42
X67.5Y-143.5
X67.5Y-164.5
X67.797Y-103.456
X67.803Y-86.961
X69.0Y-62.5
X69.084Y-93.084
X69.5Y-64.5
X69.5Y-108.5
X69.871Y-36.434
X70.0Y-69.5
X70.0Y-95.5
X70.0Y-97.5
X70.0Y-99.0
X70.0Y-111.5
X70.0Y-120.0
X70.5Y-161.0
X70.543Y-62.043
X70.582Y-67.114
X70.871Y-39.0
X70.984Y-37.003
X71.0Y-78.5
X71.0Y-83.5
X71.478Y-66.217
X71.707Y-63.707
X72.0Y-69.5
X72.0Y-111.5
X72.21Y-36.758
X72.5Y-164.5
X73.0Y-95.5
X73.0Y-97.5
X73.0Y-99.0
X73.0Y-108.5
X73.0Y-120.0
X73.195Y-69.865
X73.5Y-60.5
X73.5Y-142.0
X74.0Y-56.0
X74.0Y-150.5
X74.096Y-77.956
X74.299Y-70.841
X75.5Y-103.438
X75.718Y-145.89
X76.0Y-144.5
X76.077Y-147.774
X76.5Y-159.0
X77.0Y-163.5
X77.5Y-76.5
X77.5Y-78.5
X78.0Y-55.0
X79.0Y-76.5
X79.219Y-152.517
X79.5Y-78.5
X79.5Y-162.5
X80.221Y-148.522
X81.0Y-74.938
X81.0Y-149.5
X81.0Y-152.5
X81.491Y-147.479
X81.5Y-92.0
X82.0Y-76.5
X82.125Y-144.435
X82.5Y-95.938
X83.0Y-92.0
X83.5Y-78.5
X83.5Y-106.0
X83.646Y-95.438
X85.0Y-77.5
X85.0Y-96.5
X85.0Y-145.5
X85.0Y-148.5
X86.5Y-40.5
X87.0Y-144.5
X87.5Y-77.5
X88.0Y-71.438
X88.0Y-93.0
X88.5Y-103.438
X88.5Y-141.5
X88.5Y-143.5
X89.0Y-86.438
X89.0Y-149.362
X89.5Y-120.0
X89.5Y-145.5
X90.0Y-141.5
X90.0Y-143.5
X90.0Y-147.0
X91.131Y-164.5
X91.191Y-162.495
X91.207Y-121.207
X92.0Y-134.0
X92.5Y-139.0
X92.5Y-140.5
X92.5Y-142.0
X92.5Y-152.5
X93.0Y-82.0
X93.0Y-92.5
X93.198Y-160.064
X93.25Y-135.75
X94.251Y-165.251
X94.5Y-140.5
X94.5Y-142.0
X94.5Y-147.0
X94.911Y-86.551
X95.0Y-92.0
X95.0Y-101.0
X95.432Y-160.932
X95.994Y-85.927
X96.0Y-88.5
X96.5Y-137.5
X96.5Y-165.0
X97.0Y-100.915
X97.5Y-151.5
X98.0Y-134.0
X98.0Y-147.5
X99.0Y-144.5
X99.022Y-148.906
X99.671Y-158.233
X100.0Y-164.0
X101.671Y-158.211
X102.182Y-147.094
X102.502Y-150.975
X103.0Y-104.5
X103.0Y-120.0
X104.0Y-123.5
X104.5Y-126.5
X105.0Y-104.5
X105.0Y-121.0
X105.0Y-163.0
X105.0Y-156.0
T2
X46.5Y-41.244
X46.5Y-43.784
X46.5Y-46.324
X46.5Y-48.864
X46.5Y-51.404
X46.5Y-53.944
X46.5Y-56.484
X46.5Y-59.024
X46.5Y-61.564
X46.5Y-64.104
X46.5Y-66.644
X46.5Y-69.184
X46.5Y-71.724
X46.5Y-74.264
X46.5Y-76.804
X46.5Y-79.344
X46.5Y-81.884
X46.5Y-84.424
X46.5Y-86.964
X46.5Y-89.504
X46.5Y-92.044
X46.5Y-94.584
X46.5Y-97.124
X46.5Y-99.664
X46.5Y-102.204
X46.5Y-104.744
X46.5Y-107.284
X46.5Y-109.824
X46.5Y-112.364
X46.5Y-114.904
X46.5Y-117.444
X46.5Y-119.984
X49.04Y-41.244
X49.04Y-43.784
X49.04Y-46.324
X49.04Y-48.864
X49.04Y-51.404
X49.04Y-53.944
X49.04Y-56.484
X49.04Y-59.024
X49.04Y-61.564
X49.04Y-64.104
X49.04Y-66.644
X49.04Y-69.184
X49.04Y-71.724
X49.04Y-74.264
X49.04Y-76.804
X49.04Y-79.344
X49.04Y-81.884
X49.04Y-84.424
X49.04Y-86.964
X49.04Y-89.504
X49.04Y-92.044
X49.04Y-94.584
X49.04Y-97.124
X49.04Y-99.664
X49.04Y-102.204
X49.04Y-104.744
X49.04Y-107.284
X49.04Y-109.824
X49.04Y-112.364
X49.04Y-114.904
X49.04Y-117.444
X49.04Y-119.984
X70.38Y-58.0
X72.92Y-58.0
X75.46Y-58.0
X78.0Y-58.0
X80.54Y-58.0
X98.0Y-41.204
X98.0Y-43.744
X98.0Y-46.284
X98.0Y-48.824
X98.0Y-51.364
X98.0Y-53.904
X98.0Y-56.444
X98.0Y-58.984
X98.0Y-61.524
X98.0Y-64.064
X98.0Y-66.604
X98.0Y-69.144
X98.0Y-71.684
X98.0Y-74.224
X98.0Y-76.764
X98.0Y-79.304
X98.0Y-81.844
X98.0Y-84.384
X98.0Y-86.924
X98.0Y-89.464
X98.0Y-92.004
X98.0Y-94.544
X98.0Y-97.084
X98.0Y-99.624
X98.0Y-102.164
X98.0Y-104.704
X98.0Y-107.244
X98.0Y-109.784
X98.0Y-112.324
X98.0Y-114.864
X98.0Y-117.404
X98.0Y-119.944
X100.54Y-41.204
X100.54Y-43.744
X100.54Y-46.284
X100.54Y-48.824
X100.54Y-51.364
X100.54Y-53.904
X100.54Y-56.444
X100.54Y-58.984
X100.54Y-61.524
X100.54Y-64.064
X100.54Y-66.604
X100.54Y-69.144
X100.54Y-71.684
X100.54Y-74.224
X100.54Y-76.764
X100.54Y-79.304
X100.54Y-81.844
X100.54Y-84.384
X100.54Y-86.924
X100.54Y-89.464
X100.54Y-92.004
X100.54Y-94.544
X100.54Y-97.084
X100.54Y-99.624
X100.54Y-102.164
X100.54Y-104.704
X100.54Y-107.244
X100.54Y-109.784
X100.54Y-112.324
X100.54Y-114.864
X100.54Y-117.404
X100.54Y-119.944
T4
X43.0Y-138.5
X43.922Y-150.668
X44.5Y-144.5
X51.5Y-137.444
X54.0Y-72.0
X56.5Y-89.5
X57.5Y-38.5
X58.5Y-129.0
X59.5Y-83.5
X73.0Y-154.0
X89.5Y-62.0
X89.5Y-109.0
X89.5Y-114.5
X90.0Y-132.5
X92.0Y-95.5
X93.0Y-68.0
X94.5Y-126.5
T3
G00X76.385Y-65.758
M15
G01X75.365Y-65.758
M16
G05
G00X76.385Y-138.658
M15
G01X75.365Y-138.658
M16
G05
M30
