%TF.GenerationSoftware,KiCad,Pcbnew,9.0.0*%
%TF.CreationDate,2025-03-31T13:57:26+02:00*%
%TF.ProjectId,HW_roggeluc_linortho,48575f72-6f67-4676-956c-75635f6c696e,rev?*%
%TF.SameCoordinates,Original*%
%TF.FileFunction,Copper,L1,Top*%
%TF.FilePolarity,Positive*%
%FSLAX46Y46*%
G04 Gerber Fmt 4.6, Leading zero omitted, Abs format (unit mm)*
G04 Created by KiCad (PCBNEW 9.0.0) date 2025-03-31 13:57:26*
%MOMM*%
%LPD*%
G01*
G04 APERTURE LIST*
G04 Aperture macros list*
%AMRoundRect*
0 Rectangle with rounded corners*
0 $1 Rounding radius*
0 $2 $3 $4 $5 $6 $7 $8 $9 X,Y pos of 4 corners*
0 Add a 4 corners polygon primitive as box body*
4,1,4,$2,$3,$4,$5,$6,$7,$8,$9,$2,$3,0*
0 Add four circle primitives for the rounded corners*
1,1,$1+$1,$2,$3*
1,1,$1+$1,$4,$5*
1,1,$1+$1,$6,$7*
1,1,$1+$1,$8,$9*
0 Add four rect primitives between the rounded corners*
20,1,$1+$1,$2,$3,$4,$5,0*
20,1,$1+$1,$4,$5,$6,$7,0*
20,1,$1+$1,$6,$7,$8,$9,0*
20,1,$1+$1,$8,$9,$2,$3,0*%
%AMFreePoly0*
4,1,16,-0.244481,1.644190,-0.244384,1.644096,1.594096,-0.194384,1.595560,-0.197920,1.594190,-0.201359,0.692110,-1.153439,0.688615,-1.154998,0.688480,-1.155000,-1.150000,-1.155000,-1.153536,-1.153536,-1.155000,-1.150000,-1.155000,0.688480,-1.153630,0.691919,-0.251550,1.643999,-0.248055,1.645558,-0.244481,1.644190,-0.244481,1.644190,$1*%
%AMFreePoly1*
4,1,16,0.251456,1.644096,0.251550,1.643999,1.153630,0.691919,1.155000,0.688480,1.155000,-1.150000,1.153536,-1.153536,1.150000,-1.155000,-0.688480,-1.155000,-0.692016,-1.153536,-0.692110,-1.153439,-1.594190,-0.201359,-1.595558,-0.197785,-1.594096,-0.194384,0.244384,1.644096,0.247920,1.645560,0.251456,1.644096,0.251456,1.644096,$1*%
%AMFreePoly2*
4,1,15,-0.285094,1.603679,-0.284944,1.603536,1.553536,-0.234944,1.555000,-0.238480,1.553679,-0.241866,0.401599,-1.493946,0.398128,-1.495556,0.394534,-1.494239,0.394384,-1.494096,-1.444096,0.344384,-1.445560,0.347920,-1.444239,0.351306,-0.292159,1.603386,-0.288688,1.604996,-0.285094,1.603679,-0.285094,1.603679,$1*%
%AMFreePoly3*
4,1,16,0.692016,1.153536,0.692110,1.153439,1.594190,0.201359,1.595558,0.197785,1.594096,0.194384,-0.244384,-1.644096,-0.247920,-1.645560,-0.251456,-1.644096,-0.251550,-1.643999,-1.153630,-0.691919,-1.155000,-0.688480,-1.155000,1.150000,-1.153536,1.153536,-1.150000,1.155000,0.688480,1.155000,0.692016,1.153536,0.692016,1.153536,$1*%
G04 Aperture macros list end*
%TA.AperFunction,SMDPad,CuDef*%
%ADD10RoundRect,0.250000X-0.475000X0.337500X-0.475000X-0.337500X0.475000X-0.337500X0.475000X0.337500X0*%
%TD*%
%TA.AperFunction,SMDPad,CuDef*%
%ADD11RoundRect,0.250000X0.650000X-1.000000X0.650000X1.000000X-0.650000X1.000000X-0.650000X-1.000000X0*%
%TD*%
%TA.AperFunction,SMDPad,CuDef*%
%ADD12R,3.200000X1.000000*%
%TD*%
%TA.AperFunction,ComponentPad*%
%ADD13C,3.000000*%
%TD*%
%TA.AperFunction,SMDPad,CuDef*%
%ADD14RoundRect,0.150000X-0.587500X-0.150000X0.587500X-0.150000X0.587500X0.150000X-0.587500X0.150000X0*%
%TD*%
%TA.AperFunction,SMDPad,CuDef*%
%ADD15RoundRect,0.250000X-0.450000X0.325000X-0.450000X-0.325000X0.450000X-0.325000X0.450000X0.325000X0*%
%TD*%
%TA.AperFunction,SMDPad,CuDef*%
%ADD16RoundRect,0.250000X-1.000000X-0.650000X1.000000X-0.650000X1.000000X0.650000X-1.000000X0.650000X0*%
%TD*%
%TA.AperFunction,SMDPad,CuDef*%
%ADD17RoundRect,0.250000X0.450000X-0.350000X0.450000X0.350000X-0.450000X0.350000X-0.450000X-0.350000X0*%
%TD*%
%TA.AperFunction,SMDPad,CuDef*%
%ADD18RoundRect,0.250000X-0.450000X0.350000X-0.450000X-0.350000X0.450000X-0.350000X0.450000X0.350000X0*%
%TD*%
%TA.AperFunction,SMDPad,CuDef*%
%ADD19RoundRect,0.250000X-0.350000X-0.450000X0.350000X-0.450000X0.350000X0.450000X-0.350000X0.450000X0*%
%TD*%
%TA.AperFunction,SMDPad,CuDef*%
%ADD20RoundRect,0.250000X0.350000X0.450000X-0.350000X0.450000X-0.350000X-0.450000X0.350000X-0.450000X0*%
%TD*%
%TA.AperFunction,SMDPad,CuDef*%
%ADD21FreePoly0,180.000000*%
%TD*%
%TA.AperFunction,SMDPad,CuDef*%
%ADD22FreePoly1,180.000000*%
%TD*%
%TA.AperFunction,SMDPad,CuDef*%
%ADD23FreePoly2,180.000000*%
%TD*%
%TA.AperFunction,SMDPad,CuDef*%
%ADD24FreePoly3,180.000000*%
%TD*%
%TA.AperFunction,SMDPad,CuDef*%
%ADD25RoundRect,0.250001X0.624999X-0.462499X0.624999X0.462499X-0.624999X0.462499X-0.624999X-0.462499X0*%
%TD*%
%TA.AperFunction,SMDPad,CuDef*%
%ADD26RoundRect,0.250000X-0.337500X-0.475000X0.337500X-0.475000X0.337500X0.475000X-0.337500X0.475000X0*%
%TD*%
%TA.AperFunction,SMDPad,CuDef*%
%ADD27RoundRect,0.250000X0.475000X-0.337500X0.475000X0.337500X-0.475000X0.337500X-0.475000X-0.337500X0*%
%TD*%
%TA.AperFunction,SMDPad,CuDef*%
%ADD28RoundRect,0.150000X0.587500X0.150000X-0.587500X0.150000X-0.587500X-0.150000X0.587500X-0.150000X0*%
%TD*%
%TA.AperFunction,SMDPad,CuDef*%
%ADD29RoundRect,0.150000X-0.150000X0.825000X-0.150000X-0.825000X0.150000X-0.825000X0.150000X0.825000X0*%
%TD*%
%TA.AperFunction,SMDPad,CuDef*%
%ADD30RoundRect,0.150000X0.150000X-0.512500X0.150000X0.512500X-0.150000X0.512500X-0.150000X-0.512500X0*%
%TD*%
%TA.AperFunction,SMDPad,CuDef*%
%ADD31RoundRect,0.250001X-0.624999X0.462499X-0.624999X-0.462499X0.624999X-0.462499X0.624999X0.462499X0*%
%TD*%
%TA.AperFunction,SMDPad,CuDef*%
%ADD32RoundRect,0.062500X-0.062500X0.350000X-0.062500X-0.350000X0.062500X-0.350000X0.062500X0.350000X0*%
%TD*%
%TA.AperFunction,HeatsinkPad*%
%ADD33R,2.350000X1.580000*%
%TD*%
%TA.AperFunction,SMDPad,CuDef*%
%ADD34RoundRect,0.150000X0.150000X-0.587500X0.150000X0.587500X-0.150000X0.587500X-0.150000X-0.587500X0*%
%TD*%
%TA.AperFunction,SMDPad,CuDef*%
%ADD35R,0.500000X2.000000*%
%TD*%
%TA.AperFunction,SMDPad,CuDef*%
%ADD36R,2.000000X1.700000*%
%TD*%
%TA.AperFunction,SMDPad,CuDef*%
%ADD37RoundRect,0.250000X0.337500X0.475000X-0.337500X0.475000X-0.337500X-0.475000X0.337500X-0.475000X0*%
%TD*%
%TA.AperFunction,ComponentPad*%
%ADD38R,1.700000X1.700000*%
%TD*%
%TA.AperFunction,ComponentPad*%
%ADD39O,1.700000X1.700000*%
%TD*%
%TA.AperFunction,SMDPad,CuDef*%
%ADD40RoundRect,0.150000X-0.150000X0.587500X-0.150000X-0.587500X0.150000X-0.587500X0.150000X0.587500X0*%
%TD*%
%TA.AperFunction,SMDPad,CuDef*%
%ADD41RoundRect,0.375000X-0.625000X-0.375000X0.625000X-0.375000X0.625000X0.375000X-0.625000X0.375000X0*%
%TD*%
%TA.AperFunction,SMDPad,CuDef*%
%ADD42RoundRect,0.500000X-0.500000X-1.400000X0.500000X-1.400000X0.500000X1.400000X-0.500000X1.400000X0*%
%TD*%
%TA.AperFunction,ComponentPad*%
%ADD43O,6.880000X3.440000*%
%TD*%
%TA.AperFunction,ViaPad*%
%ADD44C,1.000000*%
%TD*%
%TA.AperFunction,Conductor*%
%ADD45C,0.250000*%
%TD*%
%TA.AperFunction,Conductor*%
%ADD46C,0.500000*%
%TD*%
G04 APERTURE END LIST*
D10*
%TO.P,C28,2*%
%TO.N,Net-(Q10-S)*%
X93500000Y-157037500D03*
%TO.P,C28,1*%
%TO.N,Net-(U1-FB)*%
X93500000Y-154962500D03*
%TD*%
D11*
%TO.P,SD3,1,K*%
%TO.N,Net-(Q10-S)*%
X96726521Y-158119870D03*
%TO.P,SD3,2,A*%
%TO.N,5V*%
X96726521Y-154119870D03*
%TD*%
D12*
%TO.P,SW1,1,C*%
%TO.N,Net-(SW1A-C)*%
X54525783Y-159607805D03*
X61325783Y-159607805D03*
%TO.P,SW1,2,D*%
%TO.N,PA6*%
X54525783Y-163607805D03*
X61325783Y-163607805D03*
%TD*%
D13*
%TO.P,TP20,1,1*%
%TO.N,Net-(Q6-D)*%
X90000000Y-132500000D03*
%TD*%
D10*
%TO.P,C29,1*%
%TO.N,GND*%
X102500000Y-125462500D03*
%TO.P,C29,2*%
%TO.N,Net-(Q10-S)*%
X102500000Y-127537500D03*
%TD*%
D14*
%TO.P,Q6,1,G*%
%TO.N,5V*%
X91625000Y-143050000D03*
%TO.P,Q6,2,S*%
%TO.N,GND*%
X91625000Y-144950000D03*
%TO.P,Q6,3,D*%
%TO.N,Net-(Q6-D)*%
X93500000Y-144000000D03*
%TD*%
D15*
%TO.P,L1,1,1*%
%TO.N,Net-(U1-VIN)*%
X87500000Y-148475000D03*
%TO.P,L1,2,2*%
%TO.N,Net-(SD2-A)*%
X87500000Y-150525000D03*
%TD*%
D16*
%TO.P,SD2,1,K*%
%TO.N,Net-(Q10-S)*%
X99000000Y-131500000D03*
%TO.P,SD2,2,A*%
%TO.N,Net-(SD2-A)*%
X103000000Y-131500000D03*
%TD*%
D17*
%TO.P,R49,1*%
%TO.N,GND*%
X96903754Y-145994094D03*
%TO.P,R49,2*%
%TO.N,5V*%
X96903754Y-143994094D03*
%TD*%
D18*
%TO.P,R46,1*%
%TO.N,Net-(U1-FB)*%
X92797663Y-161943457D03*
%TO.P,R46,2*%
%TO.N,GND*%
X92797663Y-163943457D03*
%TD*%
D19*
%TO.P,R43,1*%
%TO.N,Net-(U1-FB)*%
X95671575Y-149255034D03*
%TO.P,R43,2*%
%TO.N,Net-(Q10-S)*%
X97671575Y-149255034D03*
%TD*%
D20*
%TO.P,R47,1*%
%TO.N,Net-(Q6-D)*%
X93500000Y-137500000D03*
%TO.P,R47,2*%
%TO.N,Net-(U1-VIN)*%
X91500000Y-137500000D03*
%TD*%
D13*
%TO.P,TP19,1,1*%
%TO.N,+3.3V*%
X43000000Y-138500000D03*
%TD*%
%TO.P,TP18,1,1*%
%TO.N,Net-(Q10-S)*%
X94500000Y-126500000D03*
%TD*%
%TO.P,TP17,1,1*%
%TO.N,5V*%
X73000000Y-154000000D03*
%TD*%
%TO.P,TP16,1,1*%
%TO.N,Net-(U1-VIN)*%
X58500000Y-129000000D03*
%TD*%
%TO.P,TP14,1,1*%
%TO.N,+5V*%
X44500000Y-144500000D03*
%TD*%
D18*
%TO.P,R55,1*%
%TO.N,Net-(CHARGE2-K)*%
X86500000Y-36500000D03*
%TO.P,R55,2*%
%TO.N,GND*%
X86500000Y-38500000D03*
%TD*%
%TO.P,R54,1*%
%TO.N,PA6*%
X105247602Y-150936551D03*
%TO.P,R54,2*%
%TO.N,+5V*%
X105247602Y-152936551D03*
%TD*%
D20*
%TO.P,R53,1*%
%TO.N,Net-(Q10-G)*%
X102722369Y-152425129D03*
%TO.P,R53,2*%
%TO.N,Net-(Q10-S)*%
X100722369Y-152425129D03*
%TD*%
D19*
%TO.P,R52,1*%
%TO.N,Net-(SW1A-C)*%
X102000000Y-165000000D03*
%TO.P,R52,2*%
%TO.N,Net-(Q10-G)*%
X104000000Y-165000000D03*
%TD*%
%TO.P,R16,1*%
%TO.N,PA8*%
X49000000Y-147000000D03*
%TO.P,R16,2*%
%TO.N,Net-(Q1-G)*%
X51000000Y-147000000D03*
%TD*%
D14*
%TO.P,Q7,1,G*%
%TO.N,PA6*%
X100764239Y-148577171D03*
%TO.P,Q7,2,S*%
%TO.N,GND*%
X100764239Y-150477171D03*
%TO.P,Q7,3,D*%
%TO.N,Net-(Q10-G)*%
X102639239Y-149527171D03*
%TD*%
D21*
%TO.P,LS1,N*%
%TO.N,Net-(Q1-D)*%
X49600000Y-155900000D03*
D22*
%TO.P,LS1,4*%
%TO.N,N/C*%
X42400000Y-155900000D03*
D23*
%TO.P,LS1,2*%
X42550000Y-162950000D03*
D24*
%TO.P,LS1,P*%
%TO.N,+5V*%
X49600000Y-163100000D03*
%TD*%
D25*
%TO.P,CHARGE2,1,K*%
%TO.N,Net-(CHARGE2-K)*%
X86574749Y-33757493D03*
%TO.P,CHARGE2,2,A*%
%TO.N,LED_ON*%
X86574749Y-30782493D03*
%TD*%
D26*
%TO.P,C31,1*%
%TO.N,Net-(SW1A-C)*%
X102351735Y-161550839D03*
%TO.P,C31,2*%
%TO.N,GND*%
X104426735Y-161550839D03*
%TD*%
D27*
%TO.P,C21,1*%
%TO.N,Net-(Q2-D)*%
X58297500Y-100493750D03*
%TO.P,C21,2*%
%TO.N,PC4*%
X58297500Y-98418750D03*
%TD*%
D17*
%TO.P,R36,1*%
%TO.N,Net-(C18-Pad1)*%
X88500000Y-90975000D03*
%TO.P,R36,2*%
%TO.N,GND*%
X88500000Y-88975000D03*
%TD*%
D13*
%TO.P,TP7,1,1*%
%TO.N,PC5*%
X92000000Y-95500000D03*
%TD*%
D28*
%TO.P,Q10,1,G*%
%TO.N,Net-(Q10-G)*%
X98849742Y-164904241D03*
%TO.P,Q10,2,S*%
%TO.N,Net-(Q10-S)*%
X98849742Y-163004241D03*
%TO.P,Q10,3,D*%
%TO.N,+5V*%
X96974742Y-163954241D03*
%TD*%
D27*
%TO.P,C19,1*%
%TO.N,GND*%
X75500000Y-100475000D03*
%TO.P,C19,2*%
%TO.N,PC5*%
X75500000Y-98400000D03*
%TD*%
D10*
%TO.P,C27,1*%
%TO.N,+3.3V*%
X46500000Y-125406250D03*
%TO.P,C27,2*%
%TO.N,GND*%
X46500000Y-127481250D03*
%TD*%
D17*
%TO.P,R45,1*%
%TO.N,Net-(Q5-S)*%
X62000000Y-141000000D03*
%TO.P,R45,2*%
%TO.N,Net-(U3-VM)*%
X62000000Y-139000000D03*
%TD*%
D18*
%TO.P,R29,1*%
%TO.N,Net-(C14-Pad1)*%
X67297500Y-66956250D03*
%TO.P,R29,2*%
%TO.N,GND*%
X67297500Y-68956250D03*
%TD*%
D13*
%TO.P,TP13,1,1*%
%TO.N,PA5*%
X89500000Y-114500000D03*
%TD*%
D20*
%TO.P,R35,1*%
%TO.N,Net-(R35-Pad1)*%
X87000000Y-84437500D03*
%TO.P,R35,2*%
%TO.N,Net-(U8B--)*%
X85000000Y-84437500D03*
%TD*%
D26*
%TO.P,C13,1*%
%TO.N,+3.3V*%
X90962500Y-79937500D03*
%TO.P,C13,2*%
%TO.N,GND*%
X93037500Y-79937500D03*
%TD*%
D18*
%TO.P,R26,1*%
%TO.N,+1V65*%
X56797500Y-66956250D03*
%TO.P,R26,2*%
%TO.N,Net-(U7A-+)*%
X56797500Y-68956250D03*
%TD*%
D13*
%TO.P,TP12,1,1*%
%TO.N,fmcw_sig*%
X89500000Y-109000000D03*
%TD*%
D29*
%TO.P,U8,1*%
%TO.N,Net-(U8B-+)*%
X87405000Y-74962500D03*
%TO.P,U8,2,-*%
%TO.N,Net-(U8A--)*%
X86135000Y-74962500D03*
%TO.P,U8,3,+*%
%TO.N,Net-(U8A-+)*%
X84865000Y-74962500D03*
%TO.P,U8,4,V-*%
%TO.N,GND*%
X83595000Y-74962500D03*
%TO.P,U8,5,+*%
%TO.N,Net-(U8B-+)*%
X83595000Y-79912500D03*
%TO.P,U8,6,-*%
%TO.N,Net-(U8B--)*%
X84865000Y-79912500D03*
%TO.P,U8,7*%
%TO.N,Net-(R35-Pad1)*%
X86135000Y-79912500D03*
%TO.P,U8,8,V+*%
%TO.N,+3.3V*%
X87405000Y-79912500D03*
%TD*%
D27*
%TO.P,C15,1*%
%TO.N,Net-(C15-Pad1)*%
X63297500Y-90993750D03*
%TO.P,C15,2*%
%TO.N,Net-(U7B--)*%
X63297500Y-88918750D03*
%TD*%
D17*
%TO.P,R31,1*%
%TO.N,Net-(C15-Pad1)*%
X66797500Y-90956250D03*
%TO.P,R31,2*%
%TO.N,GND*%
X66797500Y-88956250D03*
%TD*%
D30*
%TO.P,U1,1,SW*%
%TO.N,Net-(SD2-A)*%
X91550000Y-150637500D03*
%TO.P,U1,2,GND*%
%TO.N,GND*%
X92500000Y-150637500D03*
%TO.P,U1,3,FB*%
%TO.N,Net-(U1-FB)*%
X93450000Y-150637500D03*
%TO.P,U1,4,EN*%
%TO.N,Net-(Q6-D)*%
X93450000Y-148362500D03*
%TO.P,U1,5,VIN*%
%TO.N,Net-(U1-VIN)*%
X91550000Y-148362500D03*
%TD*%
D18*
%TO.P,R40,1*%
%TO.N,PA2*%
X88500000Y-98437500D03*
%TO.P,R40,2*%
%TO.N,GND*%
X88500000Y-100437500D03*
%TD*%
D27*
%TO.P,C22,1*%
%TO.N,Net-(Q3-D)*%
X79500000Y-100475000D03*
%TO.P,C22,2*%
%TO.N,PC5*%
X79500000Y-98400000D03*
%TD*%
D30*
%TO.P,U3,1,VM*%
%TO.N,Net-(U3-VM)*%
X58050000Y-147000000D03*
%TO.P,U3,2,VDD*%
%TO.N,Net-(U3-VDD)*%
X59000000Y-147000000D03*
%TO.P,U3,3,VSS*%
%TO.N,GND*%
X59950000Y-147000000D03*
%TO.P,U3,4,DO*%
%TO.N,Net-(Q4-G)*%
X59950000Y-144725000D03*
%TO.P,U3,5,CO*%
%TO.N,Net-(Q5-G)*%
X58050000Y-144725000D03*
%TD*%
D13*
%TO.P,TP1,1,1*%
%TO.N,GND*%
X57500000Y-38500000D03*
%TD*%
%TO.P,TP6,1,1*%
%TO.N,PC4*%
X56500000Y-89500000D03*
%TD*%
D31*
%TO.P,PWR1,1,K*%
%TO.N,Net-(PWR1-K)*%
X89000000Y-161000000D03*
%TO.P,PWR1,2,A*%
%TO.N,5V*%
X89000000Y-163975000D03*
%TD*%
D18*
%TO.P,R37,1*%
%TO.N,Net-(R35-Pad1)*%
X91500000Y-88937500D03*
%TO.P,R37,2*%
%TO.N,PC5*%
X91500000Y-90937500D03*
%TD*%
D17*
%TO.P,R42,1*%
%TO.N,Net-(FULL1-K)*%
X81000000Y-156987500D03*
%TO.P,R42,2*%
%TO.N,Net-(U2-STAT1)*%
X81000000Y-154987500D03*
%TD*%
D13*
%TO.P,TP9,1,1*%
%TO.N,Net-(U7B-+)*%
X59500000Y-83500000D03*
%TD*%
D18*
%TO.P,R27,1*%
%TO.N,Net-(R27-Pad1)*%
X69797500Y-88956250D03*
%TO.P,R27,2*%
%TO.N,PC4*%
X69797500Y-90956250D03*
%TD*%
D10*
%TO.P,C17,1*%
%TO.N,IF_Q*%
X82000000Y-68925000D03*
%TO.P,C17,2*%
%TO.N,Net-(U8A-+)*%
X82000000Y-71000000D03*
%TD*%
D18*
%TO.P,R48,1*%
%TO.N,+3.3V*%
X104097857Y-143865855D03*
%TO.P,R48,2*%
%TO.N,GND*%
X104097857Y-145865855D03*
%TD*%
D20*
%TO.P,R30,1*%
%TO.N,Net-(R27-Pad1)*%
X65305740Y-85256012D03*
%TO.P,R30,2*%
%TO.N,Net-(U7B--)*%
X63305740Y-85256012D03*
%TD*%
D27*
%TO.P,C18,1*%
%TO.N,Net-(C18-Pad1)*%
X85000000Y-90975000D03*
%TO.P,C18,2*%
%TO.N,Net-(U8B--)*%
X85000000Y-88900000D03*
%TD*%
D32*
%TO.P,U2,1,V_{DD}*%
%TO.N,5V*%
X79910000Y-144457500D03*
%TO.P,U2,2,V_{DD}*%
X79410000Y-144457500D03*
%TO.P,U2,3,STAT1*%
%TO.N,Net-(U2-STAT1)*%
X78910000Y-144457500D03*
%TO.P,U2,4,STAT2*%
%TO.N,Net-(U2-STAT2)*%
X78410000Y-144457500D03*
%TO.P,U2,5,V_{SS}*%
%TO.N,GND*%
X77910000Y-144457500D03*
%TO.P,U2,6,PROG*%
%TO.N,Net-(U2-PROG)*%
X77910000Y-147332500D03*
%TO.P,U2,7,~{PG}*%
%TO.N,Net-(U2-~{PG})*%
X78410000Y-147332500D03*
%TO.P,U2,8,THERM*%
%TO.N,Net-(U2-THERM)*%
X78910000Y-147332500D03*
%TO.P,U2,9,V_{BAT}*%
%TO.N,Net-(U1-VIN)*%
X79410000Y-147332500D03*
%TO.P,U2,10,V_{BAT}*%
X79910000Y-147332500D03*
D33*
%TO.P,U2,11,EP*%
%TO.N,GND*%
X78910000Y-145895000D03*
%TD*%
D10*
%TO.P,C11,1*%
%TO.N,IF_I*%
X60297500Y-66918750D03*
%TO.P,C11,2*%
%TO.N,Net-(U7A-+)*%
X60297500Y-68993750D03*
%TD*%
D34*
%TO.P,Q5,1,G*%
%TO.N,Net-(Q5-G)*%
X56500000Y-141000000D03*
%TO.P,Q5,2,S*%
%TO.N,Net-(Q5-S)*%
X58400000Y-141000000D03*
%TO.P,Q5,3,D*%
%TO.N,Net-(Q4-D)*%
X57450000Y-139125000D03*
%TD*%
D13*
%TO.P,TP10,1,1*%
%TO.N,Net-(U7A-+)*%
X54000000Y-72000000D03*
%TD*%
D10*
%TO.P,C14,1*%
%TO.N,Net-(C14-Pad1)*%
X63797500Y-66918750D03*
%TO.P,C14,2*%
%TO.N,Net-(U7A--)*%
X63797500Y-68993750D03*
%TD*%
D27*
%TO.P,C12,1*%
%TO.N,GND*%
X54797500Y-100493750D03*
%TO.P,C12,2*%
%TO.N,PC4*%
X54797500Y-98418750D03*
%TD*%
D18*
%TO.P,R19,1*%
%TO.N,GND*%
X61000000Y-114943750D03*
%TO.P,R19,2*%
%TO.N,+1V65*%
X61000000Y-116943750D03*
%TD*%
D35*
%TO.P,J2,1,VBUS*%
%TO.N,5V*%
X68400000Y-158800000D03*
%TO.P,J2,2,D-*%
%TO.N,unconnected-(J2-D--Pad2)*%
X69200000Y-158800000D03*
%TO.P,J2,3,D+*%
%TO.N,unconnected-(J2-D+-Pad3)*%
X70000000Y-158800000D03*
%TO.P,J2,4,ID*%
%TO.N,GND*%
X70800000Y-158800000D03*
%TO.P,J2,5,GND*%
X71600000Y-158800000D03*
D36*
%TO.P,J2,6,Shield*%
X65550000Y-158900000D03*
X65550000Y-164350000D03*
X74450000Y-158900000D03*
X74450000Y-164350000D03*
%TD*%
D13*
%TO.P,TP2,1,1*%
%TO.N,GND*%
X43922370Y-150667723D03*
%TD*%
D31*
%TO.P,LED3,1,K*%
%TO.N,GND*%
X55300000Y-76412500D03*
%TO.P,LED3,2,A*%
%TO.N,Net-(LED3-A)*%
X55300000Y-79387500D03*
%TD*%
D17*
%TO.P,R21,1*%
%TO.N,Net-(PWR1-K)*%
X89000000Y-156987500D03*
%TO.P,R21,2*%
%TO.N,Net-(U2-~{PG})*%
X89000000Y-154987500D03*
%TD*%
D10*
%TO.P,C23,1*%
%TO.N,+1V65*%
X57500000Y-119906250D03*
%TO.P,C23,2*%
%TO.N,GND*%
X57500000Y-121981250D03*
%TD*%
D37*
%TO.P,C30,1*%
%TO.N,GND*%
X60537500Y-150000000D03*
%TO.P,C30,2*%
%TO.N,Net-(U3-VDD)*%
X58462500Y-150000000D03*
%TD*%
D38*
%TO.P,P3,1,Pin_a1*%
%TO.N,+5V*%
X98000000Y-119943750D03*
D39*
%TO.P,P3,2,Pin_b1*%
X100540000Y-119943750D03*
%TO.P,P3,3,Pin_a2*%
%TO.N,PF5*%
X98000000Y-117403750D03*
%TO.P,P3,4,Pin_b2*%
%TO.N,PF4*%
X100540000Y-117403750D03*
%TO.P,P3,5,Pin_a3*%
%TO.N,PF3*%
X98000000Y-114863750D03*
%TO.P,P3,6,Pin_b3*%
%TO.N,PF2*%
X100540000Y-114863750D03*
%TO.P,P3,7,Pin_a4*%
%TO.N,PF1*%
X98000000Y-112323750D03*
%TO.P,P3,8,Pin_b4*%
%TO.N,PF0*%
X100540000Y-112323750D03*
%TO.P,P3,9,Pin_a5*%
%TO.N,PC15*%
X98000000Y-109783750D03*
%TO.P,P3,10,Pin_b5*%
%TO.N,PC14*%
X100540000Y-109783750D03*
%TO.P,P3,11,Pin_a6*%
%TO.N,PC13*%
X98000000Y-107243750D03*
%TO.P,P3,12,Pin_b6*%
%TO.N,PE6*%
X100540000Y-107243750D03*
%TO.P,P3,13,Pin_a7*%
%TO.N,PE5*%
X98000000Y-104703750D03*
%TO.P,P3,14,Pin_b7*%
%TO.N,PE4*%
X100540000Y-104703750D03*
%TO.P,P3,15,Pin_a8*%
%TO.N,PE3*%
X98000000Y-102163750D03*
%TO.P,P3,16,Pin_b8*%
%TO.N,PE2*%
X100540000Y-102163750D03*
%TO.P,P3,17,Pin_a9*%
%TO.N,PE1*%
X98000000Y-99623750D03*
%TO.P,P3,18,Pin_b9*%
%TO.N,PE0*%
X100540000Y-99623750D03*
%TO.P,P3,19,Pin_a10*%
%TO.N,PB9*%
X98000000Y-97083750D03*
%TO.P,P3,20,Pin_b10*%
%TO.N,PB8*%
X100540000Y-97083750D03*
%TO.P,P3,21,Pin_a11*%
%TO.N,VDD*%
X98000000Y-94543750D03*
%TO.P,P3,22,Pin_b11*%
%TO.N,BOOT0*%
X100540000Y-94543750D03*
%TO.P,P3,23,Pin_a12*%
%TO.N,PB7*%
X98000000Y-92003750D03*
%TO.P,P3,24,Pin_b12*%
%TO.N,PB6*%
X100540000Y-92003750D03*
%TO.P,P3,25,Pin_a13*%
%TO.N,PB5*%
X98000000Y-89463750D03*
%TO.P,P3,26,Pin_b13*%
%TO.N,PB4*%
X100540000Y-89463750D03*
%TO.P,P3,27,Pin_a14*%
%TO.N,Enable*%
X98000000Y-86923750D03*
%TO.P,P3,28,Pin_b14*%
%TO.N,PG15*%
X100540000Y-86923750D03*
%TO.P,P3,29,Pin_a15*%
%TO.N,PG14*%
X98000000Y-84383750D03*
%TO.P,P3,30,Pin_b15*%
%TO.N,PG13*%
X100540000Y-84383750D03*
%TO.P,P3,31,Pin_a16*%
%TO.N,PG12*%
X98000000Y-81843750D03*
%TO.P,P3,32,Pin_b16*%
%TO.N,PG11*%
X100540000Y-81843750D03*
%TO.P,P3,33,Pin_a17*%
%TO.N,PG10*%
X98000000Y-79303750D03*
%TO.P,P3,34,Pin_b17*%
%TO.N,PG9*%
X100540000Y-79303750D03*
%TO.P,P3,35,Pin_a18*%
%TO.N,PD6*%
X98000000Y-76763750D03*
%TO.P,P3,36,Pin_b18*%
%TO.N,PD7*%
X100540000Y-76763750D03*
%TO.P,P3,37,Pin_a19*%
%TO.N,PD4*%
X98000000Y-74223750D03*
%TO.P,P3,38,Pin_b19*%
%TO.N,PD5*%
X100540000Y-74223750D03*
%TO.P,P3,39,Pin_a20*%
%TO.N,PD2*%
X98000000Y-71683750D03*
%TO.P,P3,40,Pin_b20*%
%TO.N,PD3*%
X100540000Y-71683750D03*
%TO.P,P3,41,Pin_a21*%
%TO.N,PD0*%
X98000000Y-69143750D03*
%TO.P,P3,42,Pin_b21*%
%TO.N,PD1*%
X100540000Y-69143750D03*
%TO.P,P3,43,Pin_a22*%
%TO.N,PC11*%
X98000000Y-66603750D03*
%TO.P,P3,44,Pin_b22*%
%TO.N,PC12*%
X100540000Y-66603750D03*
%TO.P,P3,45,Pin_a23*%
%TO.N,PA15*%
X98000000Y-64063750D03*
%TO.P,P3,46,Pin_b23*%
%TO.N,PC10*%
X100540000Y-64063750D03*
%TO.P,P3,47,Pin_a24*%
%TO.N,PA13*%
X98000000Y-61523750D03*
%TO.P,P3,48,Pin_b24*%
%TO.N,PA14*%
X100540000Y-61523750D03*
%TO.P,P3,49,Pin_a25*%
%TO.N,PA11*%
X98000000Y-58983750D03*
%TO.P,P3,50,Pin_b25*%
%TO.N,PA12*%
X100540000Y-58983750D03*
%TO.P,P3,51,Pin_a26*%
%TO.N,LED_ON*%
X98000000Y-56443750D03*
%TO.P,P3,52,Pin_b26*%
%TO.N,PA10*%
X100540000Y-56443750D03*
%TO.P,P3,53,Pin_a27*%
%TO.N,PC9*%
X98000000Y-53903750D03*
%TO.P,P3,54,Pin_b27*%
%TO.N,PA8*%
X100540000Y-53903750D03*
%TO.P,P3,55,Pin_a28*%
%TO.N,PC7*%
X98000000Y-51363750D03*
%TO.P,P3,56,Pin_b28*%
%TO.N,PC8*%
X100540000Y-51363750D03*
%TO.P,P3,57,Pin_a29*%
%TO.N,PG8*%
X98000000Y-48823750D03*
%TO.P,P3,58,Pin_b29*%
%TO.N,PC6*%
X100540000Y-48823750D03*
%TO.P,P3,59,Pin_a30*%
%TO.N,PG6*%
X98000000Y-46283750D03*
%TO.P,P3,60,Pin_b30*%
%TO.N,PG7*%
X100540000Y-46283750D03*
%TO.P,P3,61,Pin_a31*%
%TO.N,PG4*%
X98000000Y-43743750D03*
%TO.P,P3,62,Pin_b31*%
%TO.N,PG5*%
X100540000Y-43743750D03*
%TO.P,P3,63,Pin_a32*%
%TO.N,GND*%
X98000000Y-41203750D03*
%TO.P,P3,64,Pin_b32*%
X100540000Y-41203750D03*
%TD*%
D17*
%TO.P,R17,1*%
%TO.N,Net-(U2-PROG)*%
X73500000Y-146000000D03*
%TO.P,R17,2*%
%TO.N,GND*%
X73500000Y-144000000D03*
%TD*%
D20*
%TO.P,R44,1*%
%TO.N,Net-(U3-VDD)*%
X67000000Y-150000000D03*
%TO.P,R44,2*%
%TO.N,Net-(U1-VIN)*%
X65000000Y-150000000D03*
%TD*%
D10*
%TO.P,C20,1*%
%TO.N,GND*%
X83500000Y-107962500D03*
%TO.P,C20,2*%
%TO.N,fmcw_sig*%
X83500000Y-110037500D03*
%TD*%
D26*
%TO.P,C10,1*%
%TO.N,+3.3V*%
X69760000Y-79956250D03*
%TO.P,C10,2*%
%TO.N,GND*%
X71835000Y-79956250D03*
%TD*%
D19*
%TO.P,R20,1*%
%TO.N,Net-(U2-THERM)*%
X77000000Y-150000000D03*
%TO.P,R20,2*%
%TO.N,GND*%
X79000000Y-150000000D03*
%TD*%
D13*
%TO.P,TP11,1,1*%
%TO.N,Net-(U8A-+)*%
X89500000Y-62000000D03*
%TD*%
D10*
%TO.P,C24,1*%
%TO.N,+1V65*%
X61000000Y-119943750D03*
%TO.P,C24,2*%
%TO.N,GND*%
X61000000Y-122018750D03*
%TD*%
D18*
%TO.P,R33,1*%
%TO.N,Net-(C16-Pad1)*%
X89000000Y-66937500D03*
%TO.P,R33,2*%
%TO.N,GND*%
X89000000Y-68937500D03*
%TD*%
%TO.P,R34,1*%
%TO.N,+1V65*%
X79500000Y-69000000D03*
%TO.P,R34,2*%
%TO.N,Net-(U8A-+)*%
X79500000Y-71000000D03*
%TD*%
D34*
%TO.P,Q4,1,G*%
%TO.N,Net-(Q4-G)*%
X65550000Y-141000000D03*
%TO.P,Q4,2,S*%
%TO.N,GND*%
X67450000Y-141000000D03*
%TO.P,Q4,3,D*%
%TO.N,Net-(Q4-D)*%
X66500000Y-139125000D03*
%TD*%
D40*
%TO.P,Q2,1,G*%
%TO.N,PA2*%
X63747500Y-98581250D03*
%TO.P,Q2,2,S*%
%TO.N,GND*%
X61847500Y-98581250D03*
%TO.P,Q2,3,D*%
%TO.N,Net-(Q2-D)*%
X62797500Y-100456250D03*
%TD*%
D27*
%TO.P,C26,1*%
%TO.N,Net-(U1-VIN)*%
X69000000Y-128537500D03*
%TO.P,C26,2*%
%TO.N,Net-(Q5-S)*%
X69000000Y-126462500D03*
%TD*%
D10*
%TO.P,C7,1*%
%TO.N,+3.3V*%
X100752560Y-143716487D03*
%TO.P,C7,2*%
%TO.N,GND*%
X100752560Y-145791487D03*
%TD*%
D13*
%TO.P,TP4,1,1*%
%TO.N,+1V65*%
X51500000Y-137443750D03*
%TD*%
D19*
%TO.P,R16,1*%
%TO.N,+5V*%
X53000000Y-155000000D03*
%TO.P,R16,2*%
%TO.N,Net-(Q1-D)*%
X55000000Y-155000000D03*
%TD*%
D13*
%TO.P,TP8,1,1*%
%TO.N,Net-(U8B-+)*%
X93000000Y-68000000D03*
%TD*%
D37*
%TO.P,C25,1*%
%TO.N,5V*%
X61537500Y-155500000D03*
%TO.P,C25,2*%
%TO.N,GND*%
X59462500Y-155500000D03*
%TD*%
D10*
%TO.P,C16,1*%
%TO.N,Net-(C16-Pad1)*%
X85500000Y-66900000D03*
%TO.P,C16,2*%
%TO.N,Net-(U8A--)*%
X85500000Y-68975000D03*
%TD*%
D31*
%TO.P,FULL1,1,K*%
%TO.N,Net-(FULL1-K)*%
X81000000Y-161000000D03*
%TO.P,FULL1,2,A*%
%TO.N,5V*%
X81000000Y-163975000D03*
%TD*%
D40*
%TO.P,Q1,1,G*%
%TO.N,Net-(Q1-G)*%
X50950000Y-149625000D03*
%TO.P,Q1,2,S*%
%TO.N,GND*%
X49050000Y-149625000D03*
%TO.P,Q1,3,D*%
%TO.N,Net-(Q1-D)*%
X50000000Y-151500000D03*
%TD*%
D17*
%TO.P,R38,1*%
%TO.N,PA5*%
X83500000Y-114500000D03*
%TO.P,R38,2*%
%TO.N,fmcw_sig*%
X83500000Y-112500000D03*
%TD*%
D40*
%TO.P,Q3,1,G*%
%TO.N,PA2*%
X84450000Y-98562500D03*
%TO.P,Q3,2,S*%
%TO.N,GND*%
X82550000Y-98562500D03*
%TO.P,Q3,3,D*%
%TO.N,Net-(Q3-D)*%
X83500000Y-100437500D03*
%TD*%
D17*
%TO.P,R28,1*%
%TO.N,Net-(U7B-+)*%
X70297500Y-73956250D03*
%TO.P,R28,2*%
%TO.N,Net-(U7A--)*%
X70297500Y-71956250D03*
%TD*%
D18*
%TO.P,R39,1*%
%TO.N,PA2*%
X67797500Y-98456250D03*
%TO.P,R39,2*%
%TO.N,GND*%
X67797500Y-100456250D03*
%TD*%
D19*
%TO.P,R15,1*%
%TO.N,PA8*%
X49000000Y-143500000D03*
%TO.P,R15,2*%
%TO.N,GND*%
X51000000Y-143500000D03*
%TD*%
D17*
%TO.P,R41,1*%
%TO.N,Net-(CRG1-K)*%
X85000000Y-156987500D03*
%TO.P,R41,2*%
%TO.N,Net-(U2-STAT2)*%
X85000000Y-154987500D03*
%TD*%
%TO.P,R11,1*%
%TO.N,Enable*%
X56000000Y-84400000D03*
%TO.P,R11,2*%
%TO.N,Net-(LED3-A)*%
X56000000Y-82400000D03*
%TD*%
D31*
%TO.P,CRG1,1,K*%
%TO.N,Net-(CRG1-K)*%
X85000000Y-161000000D03*
%TO.P,CRG1,2,A*%
%TO.N,5V*%
X85000000Y-163975000D03*
%TD*%
D41*
%TO.P,U4,1,GND*%
%TO.N,GND*%
X98350000Y-136700000D03*
%TO.P,U4,2,VO*%
%TO.N,+3.3V*%
X98350000Y-139000000D03*
D42*
X104650000Y-139000000D03*
D41*
%TO.P,U4,3,VI*%
%TO.N,Net-(Q10-S)*%
X98350000Y-141300000D03*
%TD*%
D10*
%TO.P,C1,1*%
%TO.N,+3.3V*%
X43500000Y-125406250D03*
%TO.P,C1,2*%
%TO.N,GND*%
X43500000Y-127481250D03*
%TD*%
D29*
%TO.P,U7,1*%
%TO.N,Net-(U7B-+)*%
X65702500Y-74981250D03*
%TO.P,U7,2,-*%
%TO.N,Net-(U7A--)*%
X64432500Y-74981250D03*
%TO.P,U7,3,+*%
%TO.N,Net-(U7A-+)*%
X63162500Y-74981250D03*
%TO.P,U7,4,V-*%
%TO.N,GND*%
X61892500Y-74981250D03*
%TO.P,U7,5,+*%
%TO.N,Net-(U7B-+)*%
X61892500Y-79931250D03*
%TO.P,U7,6,-*%
%TO.N,Net-(U7B--)*%
X63162500Y-79931250D03*
%TO.P,U7,7*%
%TO.N,Net-(R27-Pad1)*%
X64432500Y-79931250D03*
%TO.P,U7,8,V+*%
%TO.N,+3.3V*%
X65702500Y-79931250D03*
%TD*%
D17*
%TO.P,R18,1*%
%TO.N,+1V65*%
X57500000Y-116943750D03*
%TO.P,R18,2*%
%TO.N,+3.3V*%
X57500000Y-114943750D03*
%TD*%
%TO.P,R32,1*%
%TO.N,Net-(U8B-+)*%
X91500000Y-73937500D03*
%TO.P,R32,2*%
%TO.N,Net-(U8A--)*%
X91500000Y-71937500D03*
%TD*%
D38*
%TO.P,P4,1,Pin_a1*%
%TO.N,+3.3V*%
X46500000Y-119983750D03*
D39*
%TO.P,P4,2,Pin_b1*%
X49040000Y-119983750D03*
%TO.P,P4,3,Pin_a2*%
%TO.N,NC*%
X46500000Y-117443750D03*
%TO.P,P4,4,Pin_b2*%
%TO.N,PF6*%
X49040000Y-117443750D03*
%TO.P,P4,5,Pin_a3*%
%TO.N,PF7*%
X46500000Y-114903750D03*
%TO.P,P4,6,Pin_b3*%
%TO.N,PF8*%
X49040000Y-114903750D03*
%TO.P,P4,7,Pin_a4*%
%TO.N,PF9*%
X46500000Y-112363750D03*
%TO.P,P4,8,Pin_b4*%
%TO.N,PF10*%
X49040000Y-112363750D03*
%TO.P,P4,9,Pin_a5*%
%TO.N,PH0*%
X46500000Y-109823750D03*
%TO.P,P4,10,Pin_b5*%
%TO.N,PH1*%
X49040000Y-109823750D03*
%TO.P,P4,11,Pin_a6*%
%TO.N,NRST*%
X46500000Y-107283750D03*
%TO.P,P4,12,Pin_b6*%
%TO.N,GND*%
X49040000Y-107283750D03*
%TO.P,P4,13,Pin_a7*%
%TO.N,PC0*%
X46500000Y-104743750D03*
%TO.P,P4,14,Pin_b7*%
%TO.N,PC1*%
X49040000Y-104743750D03*
%TO.P,P4,15,Pin_a8*%
%TO.N,PC2*%
X46500000Y-102203750D03*
%TO.P,P4,16,Pin_b8*%
%TO.N,PC3*%
X49040000Y-102203750D03*
%TO.P,P4,17,Pin_a9*%
%TO.N,PA0*%
X46500000Y-99663750D03*
%TO.P,P4,18,Pin_b9*%
%TO.N,PA1*%
X49040000Y-99663750D03*
%TO.P,P4,19,Pin_a10*%
%TO.N,PA2*%
X46500000Y-97123750D03*
%TO.P,P4,20,Pin_b10*%
%TO.N,PA3*%
X49040000Y-97123750D03*
%TO.P,P4,21,Pin_a11*%
%TO.N,PA4*%
X46500000Y-94583750D03*
%TO.P,P4,22,Pin_b11*%
%TO.N,PA5*%
X49040000Y-94583750D03*
%TO.P,P4,23,Pin_a12*%
%TO.N,PA6*%
X46500000Y-92043750D03*
%TO.P,P4,24,Pin_b12*%
%TO.N,PA7*%
X49040000Y-92043750D03*
%TO.P,P4,25,Pin_a13*%
%TO.N,PC4*%
X46500000Y-89503750D03*
%TO.P,P4,26,Pin_b13*%
%TO.N,PC5*%
X49040000Y-89503750D03*
%TO.P,P4,27,Pin_a14*%
%TO.N,PB0*%
X46500000Y-86963750D03*
%TO.P,P4,28,Pin_b14*%
%TO.N,PB1*%
X49040000Y-86963750D03*
%TO.P,P4,29,Pin_a15*%
%TO.N,PB2*%
X46500000Y-84423750D03*
%TO.P,P4,30,Pin_b15*%
%TO.N,GND*%
X49040000Y-84423750D03*
%TO.P,P4,31,Pin_a16*%
%TO.N,PF11*%
X46500000Y-81883750D03*
%TO.P,P4,32,Pin_b16*%
%TO.N,PF12*%
X49040000Y-81883750D03*
%TO.P,P4,33,Pin_a17*%
%TO.N,PF13*%
X46500000Y-79343750D03*
%TO.P,P4,34,Pin_b17*%
%TO.N,PF14*%
X49040000Y-79343750D03*
%TO.P,P4,35,Pin_a18*%
%TO.N,PF15*%
X46500000Y-76803750D03*
%TO.P,P4,36,Pin_b18*%
%TO.N,PG0*%
X49040000Y-76803750D03*
%TO.P,P4,37,Pin_a19*%
%TO.N,PG1*%
X46500000Y-74263750D03*
%TO.P,P4,38,Pin_b19*%
%TO.N,PE7*%
X49040000Y-74263750D03*
%TO.P,P4,39,Pin_a20*%
%TO.N,PE8*%
X46500000Y-71723750D03*
%TO.P,P4,40,Pin_b20*%
%TO.N,PE9*%
X49040000Y-71723750D03*
%TO.P,P4,41,Pin_a21*%
%TO.N,PE10*%
X46500000Y-69183750D03*
%TO.P,P4,42,Pin_b21*%
%TO.N,PE11*%
X49040000Y-69183750D03*
%TO.P,P4,43,Pin_a22*%
%TO.N,PE12*%
X46500000Y-66643750D03*
%TO.P,P4,44,Pin_b22*%
%TO.N,PE13*%
X49040000Y-66643750D03*
%TO.P,P4,45,Pin_a23*%
%TO.N,PE14*%
X46500000Y-64103750D03*
%TO.P,P4,46,Pin_b23*%
%TO.N,PE15*%
X49040000Y-64103750D03*
%TO.P,P4,47,Pin_a24*%
%TO.N,PB10*%
X46500000Y-61563750D03*
%TO.P,P4,48,Pin_b24*%
%TO.N,PB11*%
X49040000Y-61563750D03*
%TO.P,P4,49,Pin_a25*%
%TO.N,PB12*%
X46500000Y-59023750D03*
%TO.P,P4,50,Pin_b25*%
%TO.N,PB13*%
X49040000Y-59023750D03*
%TO.P,P4,51,Pin_a26*%
%TO.N,PB14*%
X46500000Y-56483750D03*
%TO.P,P4,52,Pin_b26*%
%TO.N,PB15*%
X49040000Y-56483750D03*
%TO.P,P4,53,Pin_a27*%
%TO.N,PD8*%
X46500000Y-53943750D03*
%TO.P,P4,54,Pin_b27*%
%TO.N,PD9*%
X49040000Y-53943750D03*
%TO.P,P4,55,Pin_a28*%
%TO.N,PD10*%
X46500000Y-51403750D03*
%TO.P,P4,56,Pin_b28*%
%TO.N,PD11*%
X49040000Y-51403750D03*
%TO.P,P4,57,Pin_a29*%
%TO.N,PD12*%
X46500000Y-48863750D03*
%TO.P,P4,58,Pin_b29*%
%TO.N,PD13*%
X49040000Y-48863750D03*
%TO.P,P4,59,Pin_a30*%
%TO.N,PD14*%
X46500000Y-46323750D03*
%TO.P,P4,60,Pin_b30*%
%TO.N,PD15*%
X49040000Y-46323750D03*
%TO.P,P4,61,Pin_a31*%
%TO.N,PG2*%
X46500000Y-43783750D03*
%TO.P,P4,62,Pin_b31*%
%TO.N,PG3*%
X49040000Y-43783750D03*
%TO.P,P4,63,Pin_a32*%
%TO.N,GND*%
X46500000Y-41243750D03*
%TO.P,P4,64,Pin_b32*%
X49040000Y-41243750D03*
%TD*%
D43*
%TO.P,BT1,N*%
%TO.N,Net-(Q5-S)*%
X75875416Y-65758210D03*
%TO.P,BT1,P*%
%TO.N,Net-(U1-VIN)*%
X75875416Y-138658210D03*
%TD*%
D38*
%TO.P,Y4,1,IF_Q*%
%TO.N,IF_Q*%
X70380000Y-58000000D03*
D39*
%TO.P,Y4,2,VCC*%
%TO.N,+3.3V*%
X72920000Y-58000000D03*
%TO.P,Y4,3,IF_I*%
%TO.N,IF_I*%
X75460000Y-58000000D03*
%TO.P,Y4,4,GND*%
%TO.N,GND*%
X78000000Y-58000000D03*
%TO.P,Y4,5,VCO_in*%
%TO.N,fmcw_sig*%
X80540000Y-58000000D03*
%TD*%
D44*
%TO.N,fmcw_sig*%
X83000000Y-92000000D03*
X85000000Y-96500000D03*
X79500000Y-78500000D03*
X79000000Y-76500000D03*
%TO.N,+5V*%
X105000288Y-155999712D03*
X104500000Y-126500000D03*
X105000000Y-121000000D03*
X103000000Y-120000000D03*
%TO.N,Net-(Q10-S)*%
X101671158Y-158210931D03*
X99671158Y-158232579D03*
%TO.N,5V*%
X97500000Y-151500000D03*
%TO.N,+3.3V*%
X51460000Y-119983750D03*
X51000000Y-122084750D03*
%TO.N,Net-(SW1A-C)*%
X57500000Y-161000000D03*
X60522606Y-160977394D03*
%TO.N,+3.3V*%
X73195437Y-69865290D03*
X71478335Y-66217451D03*
X71707107Y-63707107D03*
X70542893Y-62042893D03*
%TO.N,Net-(Q5-S)*%
X71000000Y-83500000D03*
X71000000Y-78500000D03*
%TO.N,Net-(Q10-S)*%
X98000000Y-147500000D03*
X99000000Y-144500000D03*
%TO.N,Net-(U1-VIN)*%
X65500000Y-131500000D03*
X61500000Y-129000000D03*
%TO.N,GND*%
X102501862Y-150975129D03*
%TO.N,5V*%
X94500000Y-142000000D03*
X92500000Y-142000000D03*
%TO.N,Net-(Q6-D)*%
X92000000Y-134000000D03*
X92500000Y-139000000D03*
%TO.N,+3.3V*%
X72000000Y-111500000D03*
X70000000Y-111500000D03*
%TO.N,PA6*%
X43952493Y-97547507D03*
X44439931Y-95560069D03*
%TO.N,+1V65*%
X72000000Y-69500000D03*
X70000000Y-69500000D03*
%TO.N,Net-(U8B-+)*%
X82000000Y-76500000D03*
X83500000Y-78500000D03*
%TO.N,PA2*%
X73000000Y-99000000D03*
X70000000Y-99000000D03*
%TO.N,GND*%
X70500000Y-161000000D03*
X64500000Y-161000000D03*
X67500000Y-164500000D03*
X72500000Y-164500000D03*
X76500000Y-159000000D03*
X91130565Y-164500000D03*
%TO.N,PE6*%
X83645645Y-95437500D03*
X81500000Y-92000000D03*
X77500000Y-78500000D03*
X77500000Y-76500000D03*
X74299000Y-70840752D03*
X70581670Y-67114116D03*
X69000000Y-62500000D03*
X69500000Y-64500000D03*
X66500000Y-36000000D03*
%TO.N,PE2*%
X97000000Y-100914751D03*
X95000000Y-101000000D03*
X95000000Y-92000000D03*
X94910972Y-86551309D03*
X70871407Y-39000000D03*
%TO.N,+3.3V*%
X69871407Y-36434287D03*
%TO.N,PE5*%
X95993986Y-85927139D03*
X96000000Y-88500000D03*
X70984495Y-37003095D03*
%TO.N,PE4*%
X103000000Y-104500000D03*
X105000000Y-104500000D03*
X72210314Y-36758406D03*
%TO.N,PA8*%
X91207107Y-121207107D03*
X89500000Y-120000000D03*
X73000000Y-120000000D03*
X70000000Y-120000000D03*
X46500000Y-142999000D03*
X46500000Y-140999000D03*
%TO.N,PC5*%
X57500000Y-94000000D03*
X59815232Y-94815232D03*
X70000000Y-97500000D03*
X73000000Y-97500000D03*
%TO.N,PA5*%
X69500000Y-108500000D03*
X73000000Y-108500000D03*
%TO.N,GND*%
X83500000Y-106000000D03*
%TO.N,Enable*%
X93000000Y-92500000D03*
X88000000Y-93000000D03*
X73000000Y-95500000D03*
X70000000Y-95500000D03*
X66919768Y-92419768D03*
X69083982Y-93083982D03*
%TO.N,GND*%
X53000000Y-76500000D03*
%TO.N,Net-(SD2-A)*%
X94500000Y-140500000D03*
X92500000Y-140500000D03*
X90000000Y-141500000D03*
X90000000Y-143500000D03*
X89000000Y-149362500D03*
X89500000Y-145500000D03*
%TO.N,+3.3V*%
X93250000Y-135750000D03*
X96500000Y-137500000D03*
%TO.N,IF_I*%
X73500000Y-60500000D03*
X74000000Y-56000000D03*
%TO.N,GND*%
X78000000Y-55000000D03*
%TO.N,+3.3V*%
X87500000Y-77500000D03*
X85000000Y-77500000D03*
%TO.N,GND*%
X86500000Y-40500000D03*
X102181915Y-147093908D03*
X94500000Y-147000000D03*
%TO.N,5V*%
X99021574Y-148905622D03*
%TO.N,+5V*%
X96500000Y-165000000D03*
X94251000Y-165251000D03*
%TO.N,Net-(SW1A-C)*%
X100000000Y-164000000D03*
X95432289Y-160932289D03*
X91191397Y-162495416D03*
X79500000Y-162500000D03*
X77000000Y-163500000D03*
X93198116Y-160064054D03*
%TO.N,GND*%
X55500000Y-41000000D03*
X46493795Y-151500000D03*
%TO.N,Net-(Q5-S)*%
X61000000Y-137000000D03*
X61000000Y-135000000D03*
%TO.N,Net-(U1-VIN)*%
X88500000Y-141500000D03*
X88500000Y-143500000D03*
%TO.N,GND*%
X104000000Y-123500000D03*
X92500000Y-152500000D03*
X62000000Y-147000000D03*
X53000000Y-143500000D03*
X47500000Y-149500000D03*
X90000000Y-147000000D03*
X105000000Y-163000000D03*
X98000000Y-134000000D03*
X73500000Y-142000000D03*
%TO.N,5V*%
X82125000Y-144435214D03*
X87000000Y-144500000D03*
%TO.N,GND*%
X80221045Y-148522383D03*
%TO.N,Net-(U2-~{PG})*%
X74000000Y-150500000D03*
X79219178Y-152516978D03*
%TO.N,Net-(U2-STAT2)*%
X85000000Y-145500000D03*
X85000000Y-148500000D03*
%TO.N,Net-(U2-STAT1)*%
X81000000Y-149500000D03*
X81000000Y-152500000D03*
%TO.N,GND*%
X75718393Y-145889587D03*
X76000000Y-144500000D03*
X62780079Y-150047622D03*
X67500000Y-143500000D03*
X81000000Y-74937500D03*
X93000000Y-82000000D03*
X57500000Y-125443750D03*
X61000000Y-112443750D03*
X75500000Y-103437500D03*
X89000000Y-86437500D03*
X43500000Y-130943750D03*
X60797500Y-95956250D03*
X54797500Y-103456250D03*
X59297500Y-74956250D03*
X82500000Y-95937500D03*
X88500000Y-103437500D03*
X67797500Y-103456250D03*
X46500000Y-130943750D03*
X57500000Y-155500000D03*
X88000000Y-71437500D03*
X67802741Y-86961491D03*
X74096500Y-77956250D03*
X61000000Y-125443750D03*
X66797500Y-71456250D03*
%TO.N,Net-(U1-VIN)*%
X81491117Y-147478839D03*
X76076544Y-147773510D03*
%TD*%
D45*
%TO.N,fmcw_sig*%
X91000000Y-107500000D02*
X89500000Y-109000000D01*
X91000000Y-99245274D02*
X91000000Y-107500000D01*
X85000000Y-96500000D02*
X88254726Y-96500000D01*
X83000000Y-82000000D02*
X83000000Y-92000000D01*
X79500000Y-78500000D02*
X83000000Y-82000000D01*
X88254726Y-96500000D02*
X91000000Y-99245274D01*
X79000000Y-72192226D02*
X79000000Y-76500000D01*
X78424000Y-71616226D02*
X79000000Y-72192226D01*
X78783774Y-70024000D02*
X78424000Y-70383774D01*
X80168226Y-70024000D02*
X78783774Y-70024000D01*
X80576000Y-58036000D02*
X80576000Y-69616226D01*
X80540000Y-58000000D02*
X80576000Y-58036000D01*
X80576000Y-69616226D02*
X80168226Y-70024000D01*
X78424000Y-70383774D02*
X78424000Y-71616226D01*
D46*
%TO.N,+5V*%
X105500000Y-121500000D02*
X105000000Y-121000000D01*
X105500000Y-125500000D02*
X105500000Y-121500000D01*
X104500000Y-126500000D02*
X105500000Y-125500000D01*
D45*
%TO.N,GND*%
X102500000Y-125000000D02*
X104000000Y-123500000D01*
X102500000Y-125462500D02*
X102500000Y-125000000D01*
D46*
X103409968Y-145865855D02*
X102181915Y-147093908D01*
X104097857Y-145865855D02*
X103409968Y-145865855D01*
%TO.N,5V*%
X73000000Y-154000000D02*
X73000000Y-151500000D01*
X73000000Y-151500000D02*
X69500000Y-151500000D01*
%TO.N,+5V*%
X106000000Y-156999424D02*
X106000000Y-164869002D01*
X105000288Y-155999712D02*
X106000000Y-156999424D01*
X105247602Y-155752398D02*
X105000288Y-155999712D01*
X105247602Y-152936551D02*
X105247602Y-155752398D01*
X103917002Y-166952000D02*
X106000000Y-164869002D01*
X98452000Y-166952000D02*
X103917002Y-166952000D01*
X96500000Y-165000000D02*
X98452000Y-166952000D01*
D45*
%TO.N,Net-(Q10-G)*%
X103797602Y-153215597D02*
X103007134Y-152425129D01*
X103007134Y-152425129D02*
X102722369Y-152425129D01*
X103797602Y-156034464D02*
X103797602Y-153215597D01*
X104152081Y-160449839D02*
X105000000Y-159601920D01*
X103463235Y-160809613D02*
X103823009Y-160449839D01*
X103463235Y-161138685D02*
X103463235Y-160809613D01*
X103823009Y-160449839D02*
X104152081Y-160449839D01*
X103411500Y-161190420D02*
X103463235Y-161138685D01*
X105000000Y-157236862D02*
X103797602Y-156034464D01*
X103411500Y-164411500D02*
X103411500Y-161190420D01*
X105000000Y-159601920D02*
X105000000Y-157236862D01*
X104000000Y-165000000D02*
X103411500Y-164411500D01*
D46*
%TO.N,+5V*%
X102943750Y-119943750D02*
X103000000Y-120000000D01*
X100540000Y-119943750D02*
X102943750Y-119943750D01*
X98000000Y-119943750D02*
X100540000Y-119943750D01*
%TO.N,+3.3V*%
X89000000Y-136000000D02*
X93000000Y-136000000D01*
X86887316Y-133887316D02*
X89000000Y-136000000D01*
X85000000Y-133887316D02*
X86887316Y-133887316D01*
X72000000Y-120887316D02*
X85000000Y-133887316D01*
X93000000Y-136000000D02*
X93250000Y-135750000D01*
X72000000Y-111500000D02*
X72000000Y-120887316D01*
%TO.N,Net-(U1-VIN)*%
X84000000Y-137500000D02*
X91500000Y-137500000D01*
X83600000Y-137900000D02*
X84000000Y-137500000D01*
X75500000Y-136510000D02*
X76890000Y-137900000D01*
X76890000Y-137900000D02*
X83600000Y-137900000D01*
%TO.N,Net-(Q10-S)*%
X99500000Y-158061421D02*
X99671158Y-158232579D01*
X99500000Y-156500000D02*
X99500000Y-158061421D01*
X98500000Y-155500000D02*
X99500000Y-156500000D01*
X98500000Y-150083459D02*
X98500000Y-155500000D01*
X97671575Y-149255034D02*
X98500000Y-150083459D01*
X101500000Y-158382089D02*
X101671158Y-158210931D01*
X101500000Y-160500000D02*
X101500000Y-158382089D01*
X101500000Y-158039773D02*
X101671158Y-158210931D01*
X101500000Y-155500000D02*
X101500000Y-158039773D01*
X99558449Y-158119870D02*
X99671158Y-158232579D01*
X96726521Y-158119870D02*
X99558449Y-158119870D01*
%TO.N,5V*%
X96726521Y-152273479D02*
X97500000Y-151500000D01*
X96726521Y-154119870D02*
X96726521Y-152273479D01*
%TO.N,Net-(Q10-S)*%
X94582370Y-158119870D02*
X93500000Y-157037500D01*
X96726521Y-158119870D02*
X94582370Y-158119870D01*
%TO.N,+3.3V*%
X50584750Y-122500000D02*
X51000000Y-122084750D01*
X46500000Y-122500000D02*
X50584750Y-122500000D01*
X46500000Y-119983750D02*
X46500000Y-122500000D01*
%TO.N,Net-(SW1A-C)*%
X60522606Y-160410982D02*
X61325783Y-159607805D01*
X60522606Y-160977394D02*
X60522606Y-160410982D01*
X56107805Y-159607805D02*
X57500000Y-161000000D01*
X54525783Y-159607805D02*
X56107805Y-159607805D01*
%TO.N,+1V65*%
X73000000Y-68500000D02*
X72000000Y-69500000D01*
X79500000Y-69000000D02*
X79000000Y-68500000D01*
X79000000Y-68500000D02*
X73000000Y-68500000D01*
%TO.N,IF_Q*%
X81499000Y-53999000D02*
X74381000Y-53999000D01*
X83000000Y-55500000D02*
X81499000Y-53999000D01*
X74381000Y-53999000D02*
X70380000Y-58000000D01*
X82000000Y-63000000D02*
X83000000Y-62000000D01*
X82000000Y-68925000D02*
X82000000Y-63000000D01*
X83000000Y-62000000D02*
X83000000Y-55500000D01*
%TO.N,Net-(U8A-+)*%
X84000000Y-70975000D02*
X84025000Y-71000000D01*
X87500000Y-62000000D02*
X84000000Y-65500000D01*
X89500000Y-62000000D02*
X87500000Y-62000000D01*
X84000000Y-65500000D02*
X84000000Y-70975000D01*
X84025000Y-71000000D02*
X84865000Y-71840000D01*
X82000000Y-71000000D02*
X84025000Y-71000000D01*
D45*
%TO.N,PE6*%
X77576000Y-76424000D02*
X77500000Y-76500000D01*
X77576000Y-75273533D02*
X77576000Y-76424000D01*
X77951416Y-73178303D02*
X77951416Y-74898117D01*
X77576000Y-72802887D02*
X77951416Y-73178303D01*
X77576000Y-71030093D02*
X77576000Y-72802887D01*
X77951416Y-74898117D02*
X77576000Y-75273533D01*
X77000000Y-70454093D02*
X77576000Y-71030093D01*
X74685659Y-70454093D02*
X77000000Y-70454093D01*
X74299000Y-70840752D02*
X74685659Y-70454093D01*
D46*
%TO.N,+3.3V*%
X73299000Y-69968853D02*
X73195437Y-69865290D01*
X73299000Y-70269498D02*
X73299000Y-69968853D01*
D45*
%TO.N,+1V65*%
X57723500Y-67882250D02*
X56797500Y-66956250D01*
X61129274Y-67882250D02*
X57723500Y-67882250D01*
X63056274Y-65955250D02*
X61129274Y-67882250D01*
X69455250Y-65955250D02*
X63056274Y-65955250D01*
X69706671Y-66206671D02*
X69455250Y-65955250D01*
X69706671Y-68206671D02*
X69706671Y-66206671D01*
X70000000Y-68500000D02*
X69706671Y-68206671D01*
X70000000Y-69500000D02*
X70000000Y-68500000D01*
D46*
%TO.N,+3.3V*%
X71707107Y-65988679D02*
X71478335Y-66217451D01*
X71707107Y-63707107D02*
X71707107Y-65988679D01*
D45*
%TO.N,PE6*%
X70581670Y-65581670D02*
X70581670Y-67114116D01*
X69500000Y-64500000D02*
X70581670Y-65581670D01*
D46*
%TO.N,+3.3V*%
X70420000Y-61920000D02*
X70542893Y-62042893D01*
X70420000Y-60500000D02*
X70420000Y-61920000D01*
%TO.N,Net-(Q5-S)*%
X71000000Y-70000000D02*
X71000000Y-68110000D01*
X72000000Y-71000000D02*
X71000000Y-70000000D01*
X71000000Y-68110000D02*
X73351790Y-65758210D01*
X72000000Y-77500000D02*
X72000000Y-71000000D01*
X71000000Y-78500000D02*
X72000000Y-77500000D01*
X73351790Y-65758210D02*
X75875416Y-65758210D01*
%TO.N,Net-(U8A-+)*%
X79500000Y-71000000D02*
X82000000Y-71000000D01*
%TO.N,Net-(U1-VIN)*%
X75500000Y-138231708D02*
X68865854Y-144865854D01*
X75500000Y-137900000D02*
X75500000Y-138231708D01*
X75500000Y-136510000D02*
X75500000Y-137900000D01*
%TO.N,+5V*%
X52231868Y-165731868D02*
X49600000Y-163100000D01*
X93770132Y-165731868D02*
X52231868Y-165731868D01*
X94251000Y-165251000D02*
X93770132Y-165731868D01*
%TO.N,PA6*%
X42963726Y-153963726D02*
X41500000Y-152500000D01*
X41500000Y-142670158D02*
X42171158Y-141999000D01*
X44633884Y-153963726D02*
X42963726Y-153963726D01*
X44633884Y-160702099D02*
X44633884Y-153963726D01*
X50431785Y-166500000D02*
X44633884Y-160702099D01*
X94562074Y-166500000D02*
X50431785Y-166500000D01*
X95251000Y-165811074D02*
X94562074Y-166500000D01*
X96503337Y-161273536D02*
X96503337Y-161275455D01*
X96503337Y-161275455D02*
X95251000Y-162527792D01*
X97276873Y-160500000D02*
X96503337Y-161273536D01*
X100671158Y-160158684D02*
X100329842Y-160500000D01*
X99500000Y-155000000D02*
X100671158Y-156171158D01*
X100671158Y-156171158D02*
X100671158Y-160158684D01*
X99500000Y-149841410D02*
X99500000Y-155000000D01*
X95251000Y-162527792D02*
X95251000Y-165811074D01*
X100329842Y-160500000D02*
X97276873Y-160500000D01*
X41500000Y-152500000D02*
X41500000Y-142670158D01*
X100764239Y-148577171D02*
X99500000Y-149841410D01*
%TO.N,GND*%
X45661518Y-150667723D02*
X46493795Y-151500000D01*
X43922370Y-150667723D02*
X45661518Y-150667723D01*
X46493795Y-151500000D02*
X46493795Y-151493795D01*
%TO.N,+5V*%
X44500000Y-147915628D02*
X47493795Y-150909423D01*
X44500000Y-144500000D02*
X44500000Y-147915628D01*
X47493795Y-160993795D02*
X49600000Y-163100000D01*
X47493795Y-150909423D02*
X47493795Y-160993795D01*
%TO.N,Net-(SW1A-C)*%
X100000000Y-164000000D02*
X101000000Y-163000000D01*
%TO.N,Net-(Q5-S)*%
X71000000Y-83500000D02*
X71000000Y-124462500D01*
%TO.N,+3.3V*%
X70000000Y-82000000D02*
X72000000Y-82000000D01*
%TO.N,Net-(Q10-S)*%
X98000000Y-148926609D02*
X97671575Y-149255034D01*
X98000000Y-147500000D02*
X98000000Y-148926609D01*
X98350000Y-143850000D02*
X99000000Y-144500000D01*
X98350000Y-141300000D02*
X98350000Y-143850000D01*
%TO.N,Net-(U1-VIN)*%
X66037500Y-131500000D02*
X69000000Y-128537500D01*
X65500000Y-131500000D02*
X66037500Y-131500000D01*
X58500000Y-129000000D02*
X61500000Y-129000000D01*
%TO.N,GND*%
X102003904Y-150477171D02*
X102501862Y-150975129D01*
X100764239Y-150477171D02*
X102003904Y-150477171D01*
%TO.N,Net-(Q10-G)*%
X104000000Y-150887932D02*
X102639239Y-149527171D01*
X104000000Y-151147498D02*
X104000000Y-150887932D01*
X102722369Y-152425129D02*
X104000000Y-151147498D01*
%TO.N,5V*%
X92500000Y-142175000D02*
X91625000Y-143050000D01*
X92500000Y-142000000D02*
X92500000Y-142175000D01*
X96494094Y-143994094D02*
X94500000Y-142000000D01*
X96903754Y-143994094D02*
X96494094Y-143994094D01*
%TO.N,Net-(Q6-D)*%
X91500000Y-134000000D02*
X90000000Y-132500000D01*
X92000000Y-134000000D02*
X91500000Y-134000000D01*
X93500000Y-139000000D02*
X92500000Y-139000000D01*
X93500000Y-139000000D02*
X93500000Y-144000000D01*
%TO.N,Net-(Q10-S)*%
X95537500Y-127537500D02*
X104000000Y-127537500D01*
X94500000Y-126500000D02*
X95537500Y-127537500D01*
%TO.N,+3.3V*%
X60585372Y-111442750D02*
X69942750Y-111442750D01*
X57500000Y-114528122D02*
X60585372Y-111442750D01*
X57500000Y-114943750D02*
X57500000Y-114528122D01*
X69942750Y-111442750D02*
X70000000Y-111500000D01*
D45*
%TO.N,PA6*%
X40999000Y-100501000D02*
X40999000Y-140826842D01*
X43952493Y-97547507D02*
X40999000Y-100501000D01*
X44439931Y-94103819D02*
X44439931Y-95560069D01*
X40999000Y-140826842D02*
X42171158Y-141999000D01*
X46500000Y-92043750D02*
X44439931Y-94103819D01*
%TO.N,+1V65*%
X53234000Y-121209750D02*
X57500000Y-116943750D01*
X48532174Y-121209750D02*
X53234000Y-121209750D01*
X47814000Y-120491576D02*
X48532174Y-121209750D01*
X47814000Y-99155924D02*
X47814000Y-120491576D01*
X47007826Y-98349750D02*
X47814000Y-99155924D01*
X45992174Y-98349750D02*
X47007826Y-98349750D01*
X43500000Y-95857576D02*
X45992174Y-98349750D01*
X45992174Y-88277750D02*
X43500000Y-90769924D01*
X47007826Y-88277750D02*
X45992174Y-88277750D01*
X49547826Y-85737750D02*
X48532174Y-85737750D01*
X48532174Y-85737750D02*
X47814000Y-86455924D01*
X50266000Y-85019576D02*
X49547826Y-85737750D01*
X47814000Y-86455924D02*
X47814000Y-87471576D01*
X43500000Y-90769924D02*
X43500000Y-95857576D01*
X50266000Y-72787750D02*
X50266000Y-85019576D01*
X47814000Y-87471576D02*
X47007826Y-88277750D01*
X56097500Y-66956250D02*
X50266000Y-72787750D01*
X56797500Y-66956250D02*
X56097500Y-66956250D01*
%TO.N,Net-(U8B-+)*%
X87405000Y-75937499D02*
X87405000Y-74962500D01*
X86842499Y-76500000D02*
X87405000Y-75937499D01*
X82000000Y-76500000D02*
X86842499Y-76500000D01*
X83595000Y-78595000D02*
X83500000Y-78500000D01*
X83595000Y-79912500D02*
X83595000Y-78595000D01*
D46*
%TO.N,Net-(SW1A-C)*%
X90000000Y-162500000D02*
X79500000Y-162500000D01*
X90004584Y-162495416D02*
X90000000Y-162500000D01*
X91191397Y-162495416D02*
X90004584Y-162495416D01*
%TO.N,Net-(U1-FB)*%
X91706998Y-156755502D02*
X93500000Y-154962500D01*
X92797663Y-161077816D02*
X91706998Y-159987151D01*
X91706998Y-159987151D02*
X91706998Y-156755502D01*
X92797663Y-161943457D02*
X92797663Y-161077816D01*
X93500000Y-153962500D02*
X93500000Y-154962500D01*
X93750000Y-153712500D02*
X93500000Y-153962500D01*
X93750000Y-153712500D02*
X93750000Y-150937500D01*
X93750000Y-150937500D02*
X93450000Y-150637500D01*
D45*
%TO.N,PA2*%
X73000000Y-102176352D02*
X73000000Y-99000000D01*
X81109534Y-104313500D02*
X75137148Y-104313500D01*
X84450000Y-100973034D02*
X81109534Y-104313500D01*
X84450000Y-98562500D02*
X84450000Y-100973034D01*
X75137148Y-104313500D02*
X73000000Y-102176352D01*
X84575000Y-98437500D02*
X84450000Y-98562500D01*
X88500000Y-98437500D02*
X84575000Y-98437500D01*
D46*
X69456250Y-98456250D02*
X70000000Y-99000000D01*
X67797500Y-98456250D02*
X69456250Y-98456250D01*
D45*
X63747500Y-100991784D02*
X63747500Y-98581250D01*
X63169534Y-101569750D02*
X63747500Y-100991784D01*
X55599024Y-99500000D02*
X57668774Y-101569750D01*
X53500000Y-98825976D02*
X54174024Y-99500000D01*
X53500000Y-97309924D02*
X53500000Y-98825976D01*
X49547826Y-93357750D02*
X53500000Y-97309924D01*
X48532174Y-93357750D02*
X49547826Y-93357750D01*
X47814000Y-94075924D02*
X48532174Y-93357750D01*
X54174024Y-99500000D02*
X55599024Y-99500000D01*
X47814000Y-95809750D02*
X47814000Y-94075924D01*
X46500000Y-97123750D02*
X47814000Y-95809750D01*
X57668774Y-101569750D02*
X63169534Y-101569750D01*
%TO.N,PC4*%
X59760000Y-92760000D02*
X59760000Y-93456250D01*
X56500000Y-89500000D02*
X59760000Y-92760000D01*
X47726000Y-88277750D02*
X46500000Y-89503750D01*
X55277750Y-88277750D02*
X47726000Y-88277750D01*
X56500000Y-89500000D02*
X55277750Y-88277750D01*
D46*
%TO.N,5V*%
X66899000Y-157226000D02*
X66899000Y-157299000D01*
X66899000Y-157299000D02*
X68400000Y-158800000D01*
D45*
%TO.N,GND*%
X70800000Y-160700000D02*
X70500000Y-161000000D01*
X70800000Y-158800000D02*
X70800000Y-160700000D01*
X64500000Y-159950000D02*
X64500000Y-161000000D01*
X65550000Y-158900000D02*
X64500000Y-159950000D01*
X67350000Y-164350000D02*
X67500000Y-164500000D01*
X65550000Y-164350000D02*
X67350000Y-164350000D01*
D46*
%TO.N,Net-(SW1A-C)*%
X64717978Y-163000000D02*
X61325783Y-159607805D01*
X77000000Y-163500000D02*
X76500000Y-163000000D01*
X76500000Y-163000000D02*
X64717978Y-163000000D01*
D45*
%TO.N,GND*%
X72650000Y-164350000D02*
X72500000Y-164500000D01*
X74450000Y-164350000D02*
X72650000Y-164350000D01*
X76400000Y-158900000D02*
X76500000Y-159000000D01*
X74450000Y-158900000D02*
X76400000Y-158900000D01*
X71600000Y-158800000D02*
X71000000Y-159400000D01*
D46*
%TO.N,Net-(Q10-G)*%
X102799000Y-166201000D02*
X104000000Y-165000000D01*
%TO.N,Net-(Q10-S)*%
X99553984Y-162000000D02*
X100000000Y-162000000D01*
X98849742Y-162704242D02*
X99553984Y-162000000D01*
X98849742Y-163004241D02*
X98849742Y-162704242D01*
%TO.N,PA6*%
X56101000Y-157970002D02*
X56101000Y-145185372D01*
X52914628Y-141999000D02*
X42171158Y-141999000D01*
X61325783Y-163194785D02*
X56101000Y-157970002D01*
X61325783Y-163607805D02*
X61325783Y-163194785D01*
X56101000Y-145185372D02*
X52914628Y-141999000D01*
%TO.N,Net-(Q10-S)*%
X101500000Y-160500000D02*
X100000000Y-162000000D01*
X100500000Y-152647498D02*
X100722369Y-152425129D01*
X100500000Y-154500000D02*
X100500000Y-152647498D01*
X101500000Y-155500000D02*
X100500000Y-154500000D01*
D45*
%TO.N,GND*%
X91687108Y-163943457D02*
X91130565Y-164500000D01*
X92797663Y-163943457D02*
X91687108Y-163943457D01*
%TO.N,PE6*%
X99296250Y-106000000D02*
X100540000Y-107243750D01*
X97562424Y-106000000D02*
X99296250Y-106000000D01*
X95374000Y-102612852D02*
X95374000Y-103811576D01*
X95374000Y-103811576D02*
X97562424Y-106000000D01*
X88198648Y-95437500D02*
X95374000Y-102612852D01*
X83645645Y-95437500D02*
X88198648Y-95437500D01*
X77500000Y-78500000D02*
X81500000Y-82500000D01*
X81500000Y-82500000D02*
X81500000Y-92000000D01*
X66500000Y-60000000D02*
X69000000Y-62500000D01*
X66500000Y-36000000D02*
X66500000Y-60000000D01*
%TO.N,PE2*%
X99291001Y-100914751D02*
X97000000Y-100914751D01*
X100540000Y-102163750D02*
X99291001Y-100914751D01*
D46*
X95000000Y-92000000D02*
X95000000Y-101000000D01*
X94910972Y-71026954D02*
X94910972Y-86551309D01*
X95249000Y-70688926D02*
X94910972Y-71026954D01*
X95249000Y-66500000D02*
X95249000Y-70688926D01*
X70871407Y-39000000D02*
X95249000Y-63377593D01*
X95249000Y-63377593D02*
X95249000Y-63500000D01*
X95249000Y-63500000D02*
X95249000Y-66500000D01*
%TO.N,+3.3V*%
X70420000Y-60500000D02*
X72920000Y-58000000D01*
X69500000Y-60500000D02*
X70420000Y-60500000D01*
X68500000Y-59500000D02*
X69500000Y-60500000D01*
X69871407Y-53628593D02*
X68500000Y-55000000D01*
X69871407Y-36434287D02*
X69871407Y-53628593D01*
X68500000Y-55000000D02*
X68500000Y-59500000D01*
%TO.N,PE5*%
X97203750Y-104703750D02*
X98000000Y-104703750D01*
X96000000Y-103500000D02*
X97203750Y-104703750D01*
X96000000Y-88500000D02*
X96000000Y-103500000D01*
X96000000Y-85921125D02*
X95993986Y-85927139D01*
X96000000Y-71000000D02*
X96000000Y-85921125D01*
%TO.N,GND*%
X93037500Y-81962500D02*
X93000000Y-82000000D01*
X93037500Y-79937500D02*
X93037500Y-81962500D01*
%TO.N,PE5*%
X96000000Y-62500000D02*
X96000000Y-71000000D01*
X94000000Y-60500000D02*
X96000000Y-62500000D01*
X70984495Y-37003095D02*
X70984495Y-37484495D01*
X70984495Y-37484495D02*
X94000000Y-60500000D01*
%TO.N,PE4*%
X100743750Y-104500000D02*
X100540000Y-104703750D01*
X103000000Y-104500000D02*
X100743750Y-104500000D01*
X105000000Y-76500000D02*
X105000000Y-104500000D01*
X105000000Y-43753147D02*
X105000000Y-76500000D01*
X90815846Y-29568993D02*
X105000000Y-43753147D01*
X79399727Y-29568993D02*
X90815846Y-29568993D01*
X72210314Y-36758406D02*
X79399727Y-29568993D01*
%TO.N,PA8*%
X102403750Y-53903750D02*
X100540000Y-53903750D01*
X104000000Y-55500000D02*
X102403750Y-53903750D01*
X104000000Y-121000000D02*
X104000000Y-55500000D01*
X101000000Y-124000000D02*
X104000000Y-121000000D01*
X91207107Y-121207107D02*
X94000000Y-124000000D01*
X73000000Y-120000000D02*
X89500000Y-120000000D01*
X94000000Y-124000000D02*
X101000000Y-124000000D01*
X70000000Y-122000000D02*
X70000000Y-120000000D01*
%TO.N,PA5*%
X58425622Y-108500000D02*
X51500000Y-101574378D01*
X69500000Y-108500000D02*
X58425622Y-108500000D01*
X51500000Y-97043750D02*
X49040000Y-94583750D01*
X51500000Y-101574378D02*
X51500000Y-97043750D01*
%TO.N,PA8*%
X51001000Y-140999000D02*
X70000000Y-122000000D01*
X46500000Y-140999000D02*
X51001000Y-140999000D01*
X47001000Y-143500000D02*
X46500000Y-142999000D01*
X49000000Y-143500000D02*
X47001000Y-143500000D01*
%TO.N,PC5*%
X53536250Y-94000000D02*
X49040000Y-89503750D01*
X67315232Y-94815232D02*
X59815232Y-94815232D01*
X57500000Y-94000000D02*
X53536250Y-94000000D01*
X70000000Y-97500000D02*
X67315232Y-94815232D01*
X73900000Y-98400000D02*
X73000000Y-97500000D01*
X75500000Y-98400000D02*
X73900000Y-98400000D01*
%TO.N,PA5*%
X79000000Y-114500000D02*
X73000000Y-108500000D01*
X83500000Y-114500000D02*
X79000000Y-114500000D01*
X83500000Y-114500000D02*
X89500000Y-114500000D01*
%TO.N,fmcw_sig*%
X88462500Y-110037500D02*
X89500000Y-109000000D01*
X83500000Y-110037500D02*
X88462500Y-110037500D01*
%TO.N,GND*%
X83500000Y-107962500D02*
X83500000Y-106000000D01*
%TO.N,fmcw_sig*%
X83500000Y-112500000D02*
X83500000Y-110037500D01*
%TO.N,Enable*%
X95000000Y-90500000D02*
X95000000Y-88000000D01*
X95000000Y-88000000D02*
X96076250Y-86923750D01*
X93000000Y-92500000D02*
X95000000Y-90500000D01*
X96076250Y-86923750D02*
X98000000Y-86923750D01*
X75500000Y-93000000D02*
X88000000Y-93000000D01*
X73000000Y-95500000D02*
X75500000Y-93000000D01*
X69083982Y-94583982D02*
X70000000Y-95500000D01*
X69083982Y-93083982D02*
X69083982Y-94583982D01*
X62419768Y-92419768D02*
X66919768Y-92419768D01*
X56000000Y-84400000D02*
X56000000Y-86000000D01*
X56000000Y-86000000D02*
X62419768Y-92419768D01*
%TO.N,Net-(LED3-A)*%
X56000000Y-80087500D02*
X55300000Y-79387500D01*
X56000000Y-82400000D02*
X56000000Y-80087500D01*
%TO.N,GND*%
X53087500Y-76412500D02*
X53000000Y-76500000D01*
X55300000Y-76412500D02*
X53087500Y-76412500D01*
%TO.N,Net-(SD2-A)*%
X101599000Y-130099000D02*
X103000000Y-131500000D01*
X97681998Y-130099000D02*
X101599000Y-130099000D01*
X94601000Y-133179998D02*
X97681998Y-130099000D01*
X94601000Y-140399000D02*
X94601000Y-133179998D01*
X94500000Y-140500000D02*
X94601000Y-140399000D01*
%TO.N,Net-(Q10-S)*%
X96800000Y-141300000D02*
X98350000Y-141300000D01*
X95500000Y-135000000D02*
X95500000Y-140000000D01*
X99000000Y-131500000D02*
X95500000Y-135000000D01*
X95500000Y-140000000D02*
X96800000Y-141300000D01*
%TO.N,+3.3V*%
X96500000Y-137500000D02*
X98000000Y-139000000D01*
X98000000Y-139000000D02*
X98350000Y-139000000D01*
%TO.N,Net-(SD2-A)*%
X91000000Y-140500000D02*
X92500000Y-140500000D01*
X90000000Y-141500000D02*
X91000000Y-140500000D01*
X89500000Y-144000000D02*
X90000000Y-143500000D01*
X89500000Y-145500000D02*
X89500000Y-144000000D01*
X87837500Y-150525000D02*
X89000000Y-149362500D01*
X87500000Y-150525000D02*
X87837500Y-150525000D01*
%TO.N,+3.3V*%
X72000000Y-111500000D02*
X72000000Y-82000000D01*
%TO.N,IF_I*%
X60297500Y-65202500D02*
X60297500Y-66918750D01*
X70500000Y-63500000D02*
X62000000Y-63500000D01*
X73500000Y-60500000D02*
X70500000Y-63500000D01*
X62000000Y-63500000D02*
X60297500Y-65202500D01*
X75460000Y-57460000D02*
X74000000Y-56000000D01*
X75460000Y-58000000D02*
X75460000Y-57460000D01*
%TO.N,GND*%
X78000000Y-58000000D02*
X78000000Y-55000000D01*
%TO.N,+3.3V*%
X76000000Y-77500000D02*
X76500000Y-77500000D01*
X73299000Y-70269498D02*
X73299000Y-74799000D01*
X73299000Y-74799000D02*
X76000000Y-77500000D01*
X70000000Y-80196250D02*
X69760000Y-79956250D01*
X70000000Y-82000000D02*
X70000000Y-80196250D01*
X76500000Y-77500000D02*
X72000000Y-82000000D01*
X85000000Y-77500000D02*
X76500000Y-77500000D01*
X87405000Y-77595000D02*
X87500000Y-77500000D01*
X87405000Y-79912500D02*
X87405000Y-77595000D01*
%TO.N,LED_ON*%
X93000000Y-37207744D02*
X86574749Y-30782493D01*
X93000000Y-55000000D02*
X93000000Y-37207744D01*
X94443750Y-56443750D02*
X93000000Y-55000000D01*
X98000000Y-56443750D02*
X94443750Y-56443750D01*
%TO.N,GND*%
X86500000Y-38500000D02*
X86500000Y-40500000D01*
%TO.N,Net-(CHARGE2-K)*%
X86574749Y-36425251D02*
X86500000Y-36500000D01*
X86574749Y-33757493D02*
X86574749Y-36425251D01*
%TO.N,GND*%
X104037500Y-161500000D02*
X104037500Y-162037500D01*
X104037500Y-162037500D02*
X105000000Y-163000000D01*
%TO.N,+3.3V*%
X104097857Y-139552143D02*
X104650000Y-139000000D01*
X104097857Y-143865855D02*
X104097857Y-139552143D01*
X103948489Y-143716487D02*
X104097857Y-143865855D01*
X100752560Y-143716487D02*
X103948489Y-143716487D01*
%TO.N,GND*%
X100879494Y-145791487D02*
X102181915Y-147093908D01*
X100752560Y-145791487D02*
X100879494Y-145791487D01*
X104097857Y-145865855D02*
X104097857Y-146089825D01*
X95000000Y-146500000D02*
X94500000Y-147000000D01*
X96000000Y-146500000D02*
X95000000Y-146500000D01*
X96505906Y-145994094D02*
X96000000Y-146500000D01*
X96903754Y-145994094D02*
X96505906Y-145994094D01*
%TO.N,5V*%
X99021574Y-146111914D02*
X96903754Y-143994094D01*
X99021574Y-148905622D02*
X99021574Y-146111914D01*
%TO.N,Net-(Q10-G)*%
X100146501Y-166201000D02*
X102799000Y-166201000D01*
X98849742Y-164904241D02*
X100146501Y-166201000D01*
%TO.N,+5V*%
X96974742Y-164525258D02*
X96500000Y-165000000D01*
X96974742Y-163954241D02*
X96974742Y-164525258D01*
%TO.N,Net-(SW1A-C)*%
X101000000Y-163000000D02*
X101000000Y-162462500D01*
X94564054Y-160064054D02*
X95432289Y-160932289D01*
X93198116Y-160064054D02*
X94564054Y-160064054D01*
%TO.N,Net-(U1-FB)*%
X94832466Y-149255034D02*
X93450000Y-150637500D01*
X95671575Y-149255034D02*
X94832466Y-149255034D01*
%TO.N,PA6*%
X54525783Y-163607805D02*
X61325783Y-163607805D01*
%TO.N,GND*%
X57500000Y-39000000D02*
X55500000Y-41000000D01*
X57500000Y-38500000D02*
X57500000Y-39000000D01*
%TO.N,+3.3V*%
X42000000Y-137500000D02*
X42000000Y-126906250D01*
X42000000Y-126906250D02*
X43500000Y-125406250D01*
X43000000Y-138500000D02*
X42000000Y-137500000D01*
%TO.N,Net-(U7A-+)*%
X56835000Y-68993750D02*
X56797500Y-68956250D01*
X60297500Y-68993750D02*
X56835000Y-68993750D01*
X54000000Y-72000000D02*
X54000000Y-71753750D01*
X54000000Y-71753750D02*
X56797500Y-68956250D01*
%TO.N,Net-(U7B-+)*%
X59500000Y-82323750D02*
X61892500Y-79931250D01*
X59500000Y-83500000D02*
X59500000Y-82323750D01*
%TO.N,Net-(U8B-+)*%
X93500000Y-71937500D02*
X91500000Y-73937500D01*
X93500000Y-68000000D02*
X93500000Y-71937500D01*
%TO.N,PC5*%
X92000000Y-91437500D02*
X91500000Y-90937500D01*
X92000000Y-94500000D02*
X92000000Y-91437500D01*
X92500000Y-95000000D02*
X92000000Y-94500000D01*
%TO.N,Net-(Q5-S)*%
X58400000Y-139600000D02*
X58400000Y-141000000D01*
X61000000Y-137000000D02*
X58400000Y-139600000D01*
X61000000Y-134462500D02*
X61000000Y-135000000D01*
X69000000Y-126462500D02*
X61000000Y-134462500D01*
X71000000Y-124462500D02*
X69000000Y-126462500D01*
%TO.N,GND*%
X72096500Y-79956250D02*
X74096500Y-77956250D01*
X71835000Y-79956250D02*
X72096500Y-79956250D01*
%TO.N,Net-(U1-VIN)*%
X69000000Y-130010000D02*
X69000000Y-128537500D01*
X75500000Y-136510000D02*
X69000000Y-130010000D01*
%TO.N,PA6*%
X103874411Y-148577171D02*
X100764239Y-148577171D01*
X105247602Y-149950362D02*
X103874411Y-148577171D01*
X105247602Y-150936551D02*
X105247602Y-149950362D01*
%TO.N,Net-(Q10-S)*%
X100722369Y-152425129D02*
X100722369Y-152863055D01*
%TO.N,Net-(U1-VIN)*%
X88500000Y-147475000D02*
X87500000Y-148475000D01*
X88500000Y-143500000D02*
X88500000Y-147475000D01*
X91500000Y-138500000D02*
X88500000Y-141500000D01*
X91500000Y-137500000D02*
X91500000Y-138500000D01*
%TO.N,Net-(Q6-D)*%
X93500000Y-137500000D02*
X93500000Y-139000000D01*
%TO.N,Net-(Q10-S)*%
X101500000Y-134000000D02*
X99000000Y-131500000D01*
X105500000Y-129037500D02*
X105500000Y-133500000D01*
X105000000Y-134000000D02*
X101500000Y-134000000D01*
X104000000Y-127537500D02*
X105500000Y-129037500D01*
X105500000Y-133500000D02*
X105000000Y-134000000D01*
%TO.N,GND*%
X92500000Y-150637500D02*
X92500000Y-152500000D01*
%TO.N,Net-(U1-VIN)*%
X87612500Y-148362500D02*
X87500000Y-148475000D01*
X91550000Y-148362500D02*
X87612500Y-148362500D01*
%TO.N,Net-(SD2-A)*%
X91437500Y-150525000D02*
X91550000Y-150637500D01*
X87500000Y-150525000D02*
X91437500Y-150525000D01*
%TO.N,Net-(U3-VM)*%
X58050000Y-146362690D02*
X58050000Y-147000000D01*
X59000000Y-144000000D02*
X59000000Y-145412690D01*
X59438500Y-143561500D02*
X59000000Y-144000000D01*
X59000000Y-145412690D02*
X58050000Y-146362690D01*
X61307502Y-143561500D02*
X59438500Y-143561500D01*
X63201000Y-141668002D02*
X61307502Y-143561500D01*
X63201000Y-140201000D02*
X63201000Y-141668002D01*
X62000000Y-139000000D02*
X63201000Y-140201000D01*
%TO.N,GND*%
X59950000Y-147000000D02*
X62000000Y-147000000D01*
X51000000Y-143500000D02*
X53000000Y-143500000D01*
%TO.N,PA8*%
X48000000Y-143500000D02*
X49000000Y-143500000D01*
X47500000Y-144000000D02*
X48000000Y-143500000D01*
X47500000Y-146500000D02*
X47500000Y-144000000D01*
X48000000Y-147000000D02*
X47500000Y-146500000D01*
X49000000Y-147000000D02*
X48000000Y-147000000D01*
%TO.N,Net-(Q1-G)*%
X50950000Y-147050000D02*
X51000000Y-147000000D01*
X50950000Y-149625000D02*
X50950000Y-147050000D01*
%TO.N,GND*%
X47625000Y-149625000D02*
X47500000Y-149500000D01*
X49050000Y-149625000D02*
X47625000Y-149625000D01*
%TO.N,Net-(Q1-D)*%
X50000000Y-155500000D02*
X49600000Y-155900000D01*
X50000000Y-151500000D02*
X50000000Y-155500000D01*
X51701000Y-153799000D02*
X49600000Y-155900000D01*
X53799000Y-153799000D02*
X51701000Y-153799000D01*
X55000000Y-155000000D02*
X53799000Y-153799000D01*
%TO.N,+5V*%
X49600000Y-159100000D02*
X49600000Y-163100000D01*
X53000000Y-155700000D02*
X49600000Y-159100000D01*
X53000000Y-155000000D02*
X53000000Y-155700000D01*
%TO.N,5V*%
X91075000Y-142500000D02*
X86000000Y-142500000D01*
X91625000Y-143050000D02*
X91075000Y-142500000D01*
%TO.N,GND*%
X91625000Y-145375000D02*
X90000000Y-147000000D01*
X91625000Y-144950000D02*
X91625000Y-145375000D01*
%TO.N,Net-(Q6-D)*%
X93500000Y-148312500D02*
X93450000Y-148362500D01*
X93500000Y-144000000D02*
X93500000Y-148312500D01*
%TO.N,Net-(Q10-S)*%
X100847369Y-152800129D02*
X100722369Y-152925129D01*
%TO.N,Net-(SW1A-C)*%
X101000000Y-162462500D02*
X101962500Y-161500000D01*
X101000000Y-164000000D02*
X101000000Y-163000000D01*
X102000000Y-165000000D02*
X101000000Y-164000000D01*
%TO.N,Net-(Q10-S)*%
X98437500Y-141387500D02*
X98350000Y-141300000D01*
%TO.N,+3.3V*%
X98350000Y-139000000D02*
X104650000Y-139000000D01*
%TO.N,GND*%
X98350000Y-134350000D02*
X98000000Y-134000000D01*
X98350000Y-136700000D02*
X98350000Y-134350000D01*
D45*
X73500000Y-144000000D02*
X73500000Y-142000000D01*
%TO.N,Net-(U2-PROG)*%
X77630500Y-147332500D02*
X77910000Y-147332500D01*
X73500000Y-146000000D02*
X74265587Y-146765587D01*
X74265587Y-146765587D02*
X77063587Y-146765587D01*
X77063587Y-146765587D02*
X77630500Y-147332500D01*
%TO.N,GND*%
X76599587Y-145889587D02*
X76605000Y-145895000D01*
X75718393Y-145889587D02*
X76599587Y-145889587D01*
X76605000Y-145895000D02*
X78910000Y-145895000D01*
%TO.N,Net-(U1-VIN)*%
X71773510Y-147773510D02*
X68865854Y-144865854D01*
D46*
X65000000Y-148731708D02*
X68865854Y-144865854D01*
D45*
%TO.N,5V*%
X87000000Y-143500000D02*
X86000000Y-142500000D01*
X87000000Y-144500000D02*
X87000000Y-143500000D01*
D46*
X86000000Y-142500000D02*
X86000000Y-146000000D01*
D45*
X82102714Y-144457500D02*
X82125000Y-144435214D01*
X79910000Y-144457500D02*
X82102714Y-144457500D01*
X79410000Y-144457500D02*
X79910000Y-144457500D01*
%TO.N,GND*%
X80221045Y-148534511D02*
X79000000Y-149755556D01*
X80221045Y-148522383D02*
X80221045Y-148534511D01*
X79000000Y-149755556D02*
X79000000Y-150000000D01*
%TO.N,Net-(U2-THERM)*%
X78910000Y-148298521D02*
X78910000Y-147332500D01*
X77208521Y-150000000D02*
X78910000Y-148298521D01*
X77000000Y-150000000D02*
X77208521Y-150000000D01*
%TO.N,Net-(U1-VIN)*%
X79410000Y-147332500D02*
X79910000Y-147332500D01*
%TO.N,Net-(U2-~{PG})*%
X75576000Y-148924000D02*
X74000000Y-150500000D01*
X77576000Y-148924000D02*
X75576000Y-148924000D01*
X78410000Y-148090000D02*
X77576000Y-148924000D01*
X78410000Y-147332500D02*
X78410000Y-148090000D01*
X79219178Y-154898904D02*
X79219178Y-152516978D01*
X80283774Y-155963500D02*
X79219178Y-154898904D01*
X88024000Y-155963500D02*
X80283774Y-155963500D01*
X89000000Y-154987500D02*
X88024000Y-155963500D01*
%TO.N,Net-(U2-STAT2)*%
X78410000Y-142381480D02*
X78410000Y-144457500D01*
X85000000Y-143000000D02*
X83000000Y-141000000D01*
X83000000Y-141000000D02*
X79791480Y-141000000D01*
X79791480Y-141000000D02*
X78410000Y-142381480D01*
X85000000Y-145500000D02*
X85000000Y-143000000D01*
X85000000Y-154987500D02*
X85000000Y-148500000D01*
%TO.N,Net-(U2-STAT1)*%
X78910000Y-142590000D02*
X78910000Y-144457500D01*
X79500000Y-142000000D02*
X78910000Y-142590000D01*
X81500000Y-142000000D02*
X79500000Y-142000000D01*
X83000000Y-143500000D02*
X81500000Y-142000000D01*
X83000000Y-147500000D02*
X83000000Y-143500000D01*
X81000000Y-149500000D02*
X83000000Y-147500000D01*
X81000000Y-154987500D02*
X81000000Y-152500000D01*
D46*
%TO.N,5V*%
X79475000Y-163975000D02*
X78000000Y-162500000D01*
X80500000Y-151500000D02*
X78000000Y-151500000D01*
X81000000Y-163975000D02*
X79475000Y-163975000D01*
X78000000Y-162500000D02*
X78000000Y-151500000D01*
X68400000Y-152600000D02*
X68400000Y-155725000D01*
X86000000Y-146000000D02*
X80500000Y-151500000D01*
X78000000Y-151500000D02*
X73000000Y-151500000D01*
X69500000Y-151500000D02*
X68400000Y-152600000D01*
D45*
%TO.N,GND*%
X76042500Y-144457500D02*
X76000000Y-144500000D01*
X77910000Y-144457500D02*
X76042500Y-144457500D01*
D46*
%TO.N,Net-(U3-VDD)*%
X66000000Y-152000000D02*
X59500000Y-152000000D01*
X59500000Y-152000000D02*
X58462500Y-150962500D01*
X67000000Y-151000000D02*
X66000000Y-152000000D01*
X67000000Y-150000000D02*
X67000000Y-151000000D01*
X58462500Y-150962500D02*
X58462500Y-150000000D01*
%TO.N,Net-(U1-VIN)*%
X65000000Y-150000000D02*
X65000000Y-148731708D01*
%TO.N,GND*%
X62732457Y-150000000D02*
X62780079Y-150047622D01*
X60537500Y-150000000D02*
X62732457Y-150000000D01*
%TO.N,Net-(U3-VDD)*%
X59000000Y-149500000D02*
X59000000Y-147000000D01*
X58462500Y-150000000D02*
X58500000Y-150000000D01*
X58500000Y-150000000D02*
X59000000Y-149500000D01*
%TO.N,Net-(Q4-D)*%
X60575000Y-136000000D02*
X57450000Y-139125000D01*
X63375000Y-136000000D02*
X60575000Y-136000000D01*
X66500000Y-139125000D02*
X63375000Y-136000000D01*
%TO.N,GND*%
X67450000Y-143450000D02*
X67500000Y-143500000D01*
X67450000Y-141000000D02*
X67450000Y-143450000D01*
%TO.N,Net-(Q4-G)*%
X61825000Y-144725000D02*
X65550000Y-141000000D01*
X59950000Y-144725000D02*
X61825000Y-144725000D01*
%TO.N,Net-(Q5-S)*%
X58400000Y-141000000D02*
X62000000Y-141000000D01*
%TO.N,Net-(Q5-G)*%
X56500000Y-141000000D02*
X56500000Y-143175000D01*
X56500000Y-143175000D02*
X58050000Y-144725000D01*
%TO.N,GND*%
X59462500Y-155500000D02*
X57500000Y-155500000D01*
X46500000Y-127481250D02*
X46500000Y-130943750D01*
X88500000Y-100437500D02*
X88500000Y-103437500D01*
X66797500Y-68956250D02*
X66797500Y-71456250D01*
X57500000Y-121981250D02*
X57500000Y-125443750D01*
X61847500Y-97006250D02*
X60797500Y-95956250D01*
X83595000Y-74962500D02*
X81025000Y-74962500D01*
X89000000Y-70437500D02*
X88000000Y-71437500D01*
X43500000Y-127481250D02*
X43500000Y-130943750D01*
X54797500Y-100493750D02*
X54797500Y-103456250D01*
X67802741Y-86961491D02*
X66797500Y-87966731D01*
X82550000Y-95987500D02*
X82500000Y-95937500D01*
X66797500Y-87966731D02*
X66797500Y-88956250D01*
X67797500Y-100456250D02*
X67797500Y-103456250D01*
X88500000Y-88975000D02*
X88500000Y-86937500D01*
X75500000Y-100475000D02*
X75500000Y-103437500D01*
X61847500Y-98581250D02*
X61847500Y-97006250D01*
X61000000Y-114943750D02*
X61000000Y-112443750D01*
X81025000Y-74962500D02*
X81000000Y-74937500D01*
X89000000Y-68937500D02*
X89000000Y-70437500D01*
X88500000Y-86937500D02*
X89000000Y-86437500D01*
X61892500Y-74981250D02*
X59322500Y-74981250D01*
X59322500Y-74981250D02*
X59297500Y-74956250D01*
X82550000Y-98562500D02*
X82550000Y-95987500D01*
X61000000Y-122018750D02*
X61000000Y-125443750D01*
%TO.N,+1V65*%
X61000000Y-119943750D02*
X61000000Y-116943750D01*
X61000000Y-116943750D02*
X57500000Y-116943750D01*
X57500000Y-116943750D02*
X57500000Y-119906250D01*
X60962500Y-119906250D02*
X61000000Y-119943750D01*
X57500000Y-119906250D02*
X60962500Y-119906250D01*
X51500000Y-125906250D02*
X57500000Y-119906250D01*
X51500000Y-137443750D02*
X51500000Y-125906250D01*
%TO.N,5V*%
X66899000Y-157226000D02*
X68400000Y-155725000D01*
X61537500Y-155500000D02*
X63263500Y-157226000D01*
X63263500Y-157226000D02*
X66899000Y-157226000D01*
X81000000Y-163975000D02*
X89000000Y-163975000D01*
%TO.N,Net-(CRG1-K)*%
X85000000Y-161000000D02*
X85000000Y-156987500D01*
%TO.N,Net-(FULL1-K)*%
X81000000Y-161000000D02*
X81000000Y-156987500D01*
%TO.N,Net-(PWR1-K)*%
X89000000Y-161000000D02*
X89000000Y-156987500D01*
%TO.N,Net-(U7B-+)*%
X62797500Y-77456250D02*
X64202499Y-77456250D01*
X61892500Y-79931250D02*
X61892500Y-78361250D01*
X65702500Y-74981250D02*
X66727500Y-73956250D01*
X66727500Y-73956250D02*
X70297500Y-73956250D01*
X65702500Y-75956249D02*
X65702500Y-74981250D01*
X64202499Y-77456250D02*
X65702500Y-75956249D01*
X61892500Y-78361250D02*
X62797500Y-77456250D01*
%TO.N,Net-(U7A--)*%
X64432500Y-72769826D02*
X64432500Y-69628750D01*
X69483924Y-72769826D02*
X64432500Y-72769826D01*
X70297500Y-71956250D02*
X69483924Y-72769826D01*
X64432500Y-69628750D02*
X63797500Y-68993750D01*
X64432500Y-74981250D02*
X64432500Y-72769826D01*
%TO.N,Net-(U7B--)*%
X63305740Y-88910510D02*
X63297500Y-88918750D01*
X63162500Y-79931250D02*
X63162500Y-85112772D01*
X63305740Y-85256012D02*
X63305740Y-88910510D01*
X63162500Y-85112772D02*
X63305740Y-85256012D01*
%TO.N,+3.3V*%
X51460000Y-119983750D02*
X56500000Y-114943750D01*
X65702500Y-79931250D02*
X69735000Y-79931250D01*
X56500000Y-114943750D02*
X57500000Y-114943750D01*
X49040000Y-119983750D02*
X51460000Y-119983750D01*
X87430000Y-79937500D02*
X87405000Y-79912500D01*
X69735000Y-79931250D02*
X69760000Y-79956250D01*
X90962500Y-79937500D02*
X87430000Y-79937500D01*
X43500000Y-125406250D02*
X46500000Y-125406250D01*
X46500000Y-122500000D02*
X46500000Y-125406250D01*
%TO.N,Net-(U7A-+)*%
X63162500Y-71858750D02*
X60297500Y-68993750D01*
X63162500Y-74981250D02*
X63162500Y-71858750D01*
%TO.N,PC4*%
X69797500Y-90956250D02*
X67297500Y-93456250D01*
X59760000Y-93456250D02*
X54797500Y-98418750D01*
X58297500Y-98418750D02*
X54797500Y-98418750D01*
X67297500Y-93456250D02*
X59760000Y-93456250D01*
%TO.N,Net-(C14-Pad1)*%
X66797500Y-66956250D02*
X63835000Y-66956250D01*
X63835000Y-66956250D02*
X63797500Y-66918750D01*
%TO.N,Net-(C15-Pad1)*%
X63335000Y-90956250D02*
X63297500Y-90993750D01*
X66797500Y-90956250D02*
X63335000Y-90956250D01*
%TO.N,Net-(U8A--)*%
X86135000Y-72818952D02*
X86135000Y-74962500D01*
X85500000Y-68975000D02*
X86135000Y-69610000D01*
X86135000Y-69610000D02*
X86135000Y-72818952D01*
X91500000Y-71937500D02*
X90618548Y-72818952D01*
X90618548Y-72818952D02*
X86135000Y-72818952D01*
%TO.N,Net-(C16-Pad1)*%
X85500000Y-66900000D02*
X88962500Y-66900000D01*
X88962500Y-66900000D02*
X89000000Y-66937500D01*
%TO.N,Net-(U8A-+)*%
X84865000Y-71840000D02*
X84865000Y-74962500D01*
%TO.N,IF_Q*%
X81962500Y-68937500D02*
X82000000Y-68975000D01*
%TO.N,Net-(U8B--)*%
X84865000Y-79912500D02*
X84865000Y-84302500D01*
X84865000Y-84302500D02*
X85000000Y-84437500D01*
X85000000Y-88900000D02*
X85000000Y-84437500D01*
%TO.N,Net-(C18-Pad1)*%
X88500000Y-90975000D02*
X85000000Y-90975000D01*
%TO.N,PC5*%
X88000000Y-94437500D02*
X77500000Y-94437500D01*
X91500000Y-90937500D02*
X88000000Y-94437500D01*
X77500000Y-94437500D02*
X75500000Y-96437500D01*
X75500000Y-98400000D02*
X79500000Y-98400000D01*
X75500000Y-96437500D02*
X75500000Y-98400000D01*
%TO.N,Net-(Q2-D)*%
X62760000Y-100493750D02*
X62797500Y-100456250D01*
X58297500Y-100493750D02*
X62760000Y-100493750D01*
%TO.N,Net-(Q3-D)*%
X79500000Y-100475000D02*
X83462500Y-100475000D01*
X83462500Y-100475000D02*
X83500000Y-100437500D01*
%TO.N,PA2*%
X67672500Y-98581250D02*
X67797500Y-98456250D01*
X63747500Y-98581250D02*
X67672500Y-98581250D01*
%TO.N,Net-(R27-Pad1)*%
X65305740Y-83464490D02*
X65305740Y-85256012D01*
X69797500Y-88956250D02*
X69797500Y-86377353D01*
X68676159Y-85256012D02*
X69797500Y-86377353D01*
X64432500Y-79931250D02*
X64432500Y-82591250D01*
X64432500Y-82591250D02*
X65305740Y-83464490D01*
X65305740Y-85256012D02*
X68676159Y-85256012D01*
%TO.N,Net-(U8B-+)*%
X87405000Y-74962500D02*
X90475000Y-74962500D01*
X90475000Y-74962500D02*
X91500000Y-73937500D01*
%TO.N,Net-(R35-Pad1)*%
X89500000Y-84437500D02*
X91500000Y-86437500D01*
X91500000Y-86437500D02*
X91500000Y-88937500D01*
X87000000Y-82437500D02*
X87000000Y-84437500D01*
X86135000Y-79912500D02*
X86135000Y-81572500D01*
X86135000Y-81572500D02*
X87000000Y-82437500D01*
X87000000Y-84437500D02*
X89500000Y-84437500D01*
D45*
%TO.N,Net-(U1-VIN)*%
X81344778Y-147332500D02*
X81491117Y-147478839D01*
X79910000Y-147332500D02*
X81344778Y-147332500D01*
X76076544Y-147773510D02*
X71773510Y-147773510D01*
%TD*%
M02*
